<?xml version="1.0" standalone="no"?>
<!DOCTYPE svg PUBLIC "-//W3C//DTD SVG 20010904//EN"
 "http://www.w3.org/TR/2001/REC-SVG-20010904/DTD/svg10.dtd">
<svg version="1.0" xmlns="http://www.w3.org/2000/svg"
 width="1024.000000pt" height="1024.000000pt" viewBox="0 0 1024.000000 1024.000000"
 preserveAspectRatio="xMidYMid meet">

<g transform="translate(0.000000,1024.000000) scale(0.100000,-0.100000)"
fill="#000000" stroke="none">
<path d="M0 5120 l0 -5120 5120 0 5120 0 0 5120 0 5120 -5120 0 -5120 0 0
-5120z m5120 4196 c0 -3 -32 -19 -71 -37 -38 -18 -80 -44 -93 -58 -12 -14 -31
-31 -42 -37 -26 -15 -55 -66 -81 -144 -21 -64 -22 -64 -22 -25 -2 94 95 224
204 276 52 25 105 38 105 25z m-287 -69 l47 -28 -28 -42 c-46 -67 -54 -87 -63
-156 -4 -36 -11 -84 -15 -107 -8 -52 19 -148 51 -180 57 -57 115 -35 115 43 0
50 -14 83 -35 83 -11 0 -15 12 -15 45 l0 46 31 -16 c48 -25 55 -12 10 19 -34
24 -41 34 -41 63 0 35 38 121 63 141 12 10 28 4 83 -29 38 -23 71 -45 74 -48
3 -3 26 -16 52 -29 l48 -23 -27 -42 c-42 -66 -63 -151 -63 -251 0 -107 14
-158 56 -202 38 -41 65 -43 93 -8 27 34 29 102 4 111 -25 9 -33 23 -33 59 0
26 5 33 24 36 13 3 31 1 40 -4 9 -5 16 -7 16 -4 0 3 -18 15 -40 26 -26 13 -42
29 -46 46 -9 34 12 127 35 155 16 20 18 20 54 5 21 -8 52 -25 68 -37 17 -12
57 -34 90 -50 32 -16 59 -32 59 -36 0 -3 -13 -27 -30 -52 -41 -65 -57 -139
-55 -256 1 -82 5 -108 23 -142 20 -38 64 -73 92 -73 24 0 50 41 50 79 0 52 -8
71 -31 71 -16 0 -19 8 -19 49 l0 49 41 -19 c65 -32 69 -16 5 25 l-58 37 7 42
c8 47 26 93 48 121 14 19 16 19 73 -14 89 -49 185 -112 182 -119 -2 -3 -18
-36 -36 -73 -85 -174 -40 -438 75 -438 27 0 53 35 53 71 0 39 -20 89 -36 89
-9 0 -14 11 -14 30 0 28 2 29 33 24 17 -3 37 -7 44 -9 29 -9 -1 22 -42 44 -43
23 -45 26 -45 67 0 44 30 123 55 144 12 10 90 -28 188 -92 19 -13 42 -27 51
-33 16 -9 14 -17 -18 -82 -90 -183 -56 -433 60 -433 58 0 74 78 29 140 -36 49
-34 71 8 64 17 -3 38 -7 45 -10 6 -2 12 1 12 6 0 5 -9 12 -20 15 -11 4 -34 19
-51 34 -30 28 -30 30 -19 72 14 49 45 115 59 124 6 3 30 -6 53 -21 146 -91
169 -108 164 -123 -2 -9 -17 -45 -32 -81 -23 -53 -29 -84 -32 -167 -5 -117 13
-190 55 -223 56 -44 95 -16 95 67 0 46 -5 58 -25 58 -15 0 -22 64 -9 77 6 6
25 2 50 -11 23 -12 44 -21 48 -21 17 0 -30 39 -66 55 -23 10 -41 26 -44 40 -7
29 18 116 43 146 l19 24 49 -23 c62 -30 175 -103 171 -111 -2 -3 -15 -29 -30
-56 -14 -28 -32 -71 -39 -95 -15 -56 -15 -207 1 -257 16 -48 57 -93 85 -93 57
0 80 97 35 145 -17 18 -20 30 -15 54 7 32 15 33 73 15 23 -7 12 5 -19 21 -44
23 -69 52 -69 78 0 13 14 51 30 85 l31 61 77 -42 c42 -23 82 -45 87 -49 6 -4
20 -16 32 -26 l23 -17 -36 -71 c-29 -57 -37 -87 -44 -164 -13 -143 17 -241 82
-264 35 -12 55 -3 74 37 13 27 14 40 5 75 -12 42 -30 57 -32 25 -1 -32 -18 18
-18 55 -1 28 2 32 18 27 31 -10 34 13 5 40 -24 22 -26 30 -21 70 6 39 41 125
51 125 7 0 130 -71 146 -84 8 -7 27 -17 42 -24 l27 -11 -23 -43 c-44 -80 -56
-136 -53 -243 2 -83 7 -109 27 -150 26 -52 58 -76 91 -68 24 7 35 26 44 75 6
34 5 39 -19 49 -21 10 -26 19 -26 50 0 35 2 38 33 41 l32 4 -28 12 c-34 14
-50 55 -43 104 7 42 36 108 47 108 10 0 131 -69 150 -86 8 -8 20 -14 25 -14
29 0 29 -23 -3 -88 -31 -63 -33 -74 -33 -173 0 -122 16 -188 56 -230 29 -31
71 -38 92 -17 17 17 15 100 -2 124 -14 18 -15 18 -25 -6 -8 -21 -10 -16 -10
32 -1 59 7 66 47 35 27 -21 10 11 -24 44 -34 32 -36 37 -30 82 5 43 42 127 55
127 3 0 40 -19 81 -41 41 -23 100 -54 130 -69 93 -47 192 -123 228 -172 62
-88 75 -143 80 -334 l4 -171 -90 -51 c-50 -28 -102 -54 -116 -58 -15 -3 -29
-10 -32 -15 -10 -16 -84 -9 -125 12 -23 11 -71 39 -107 61 -37 23 -110 64
-162 91 -109 57 -695 389 -910 515 -80 47 -197 114 -260 150 -63 35 -162 91
-220 124 -58 34 -145 85 -195 113 -49 29 -225 130 -390 225 -165 95 -383 221
-485 280 -102 59 -259 150 -350 202 -190 109 -323 187 -430 250 l-75 44 -3
159 c-4 242 11 286 123 377 91 74 128 89 205 86 50 -3 77 -10 113 -31z m587
-127 c0 -5 -20 -18 -44 -29 -59 -26 -148 -117 -181 -186 -15 -31 -31 -81 -36
-113 -8 -56 -8 -56 -5 18 3 93 39 172 108 241 53 53 158 99 158 69z m325 -208
c-67 -28 -111 -60 -157 -115 -54 -62 -77 -105 -95 -172 l-13 -50 3 51 c10 143
152 304 267 303 l35 0 -40 -17z m-891 -117 c27 -18 34 -39 15 -50 -18 -12 -49
26 -64 78 -20 68 -18 81 5 30 10 -23 30 -49 44 -58z m1202 -78 c-128 -82 -185
-157 -224 -297 l-10 -35 -1 36 c-3 93 81 239 165 286 42 24 107 33 70 10z
m-896 -49 c0 -14 11 -40 25 -56 14 -17 25 -34 25 -39 0 -6 10 -18 23 -29 22
-19 22 -19 5 2 -24 27 -23 42 0 21 10 -10 22 -14 25 -10 4 3 7 2 7 -4 0 -5 -9
-18 -20 -28 -19 -17 -21 -17 -54 18 -33 35 -56 98 -56 154 0 22 2 25 10 13 5
-8 10 -27 10 -42z m-720 -61 c91 -61 340 -208 525 -309 105 -58 494 -283 645
-373 58 -34 200 -116 315 -183 116 -66 248 -142 295 -169 47 -27 164 -93 260
-147 96 -54 213 -121 260 -150 131 -81 266 -159 365 -212 50 -26 146 -81 215
-122 69 -41 193 -111 275 -155 83 -44 193 -105 245 -137 138 -83 157 -91 211
-93 55 -2 67 -16 17 -19 -62 -3 -82 4 -186 58 l-105 54 -23 -50 c-24 -53 -115
-150 -140 -150 -27 0 -14 26 37 75 28 28 64 68 80 89 l29 39 -27 19 c-44 30
-141 78 -157 78 -8 0 -41 17 -73 39 -32 21 -75 44 -97 52 -21 8 -41 19 -43 25
-3 8 -19 10 -45 6 -23 -3 -39 -1 -36 4 3 5 -5 20 -17 32 l-22 24 -7 -26 c-3
-14 -11 -26 -16 -26 -6 0 -10 -7 -10 -15 0 -8 -6 -15 -14 -15 -24 0 -106 -99
-106 -129 0 -20 2 -23 10 -11 8 12 10 11 10 -7 0 -12 3 -29 6 -37 5 -14 2 -15
-22 -6 -57 22 -4 -10 356 -215 201 -114 388 -221 415 -238 174 -106 191 -107
356 -19 64 34 119 62 124 62 4 0 5 -10 1 -22 -3 -13 -6 -444 -7 -958 0 -514
-4 -944 -9 -955 -7 -17 -9 -16 -9 10 -1 17 -6 37 -11 45 -7 11 -10 7 -10 -18
0 -20 -4 -31 -10 -27 -5 3 -10 -1 -10 -9 0 -12 -10 -16 -40 -16 -33 0 -40 3
-40 20 0 20 -15 25 -44 14 -8 -3 -12 -12 -9 -20 3 -8 0 -14 -6 -14 -6 0 -11 7
-11 17 0 9 -3 13 -7 9 -4 -4 -10 -59 -14 -124 -7 -132 -20 -171 -74 -231 -61
-67 -142 -74 -230 -21 -16 10 -70 40 -120 67 -49 27 -150 84 -224 127 -152 89
-154 90 -311 176 -110 60 -142 78 -328 185 -45 26 -80 51 -76 56 3 5 -2 6 -11
3 -10 -4 -14 -2 -10 8 4 9 -4 19 -20 26 -33 15 -38 15 -29 0 8 -13 -121 57
-149 80 -25 22 -12 28 18 8 14 -9 25 -13 25 -10 0 12 -34 33 -52 34 -17 0 -18
16 -18 190 0 105 3 190 6 190 9 0 181 -88 223 -114 22 -15 43 -26 46 -26 10 0
4 1723 -6 1741 -5 10 -29 27 -53 38 -24 10 -79 41 -122 69 -44 27 -108 65
-144 84 -64 35 -501 286 -675 388 -49 29 -169 98 -265 153 -96 55 -215 124
-265 153 -49 28 -155 88 -235 132 -80 44 -206 117 -280 161 -74 45 -138 81
-142 81 -4 0 -8 -399 -8 -887 l0 -888 93 -51 c223 -122 694 -401 737 -435 l25
-21 -25 6 c-118 29 -564 51 -740 38 l-115 -9 -35 34 c-50 47 -100 134 -116
201 -11 46 -14 305 -14 1375 0 724 3 1317 8 1317 4 0 23 -10 42 -23z m1073
-191 c19 -28 45 -34 65 -14 18 18 15 -8 -5 -42 -13 -23 -20 -27 -35 -19 -30
16 -60 88 -64 153 l-4 61 13 -56 c7 -31 21 -68 30 -83z m927 126 c0 -4 -21
-17 -47 -29 -100 -46 -174 -136 -214 -262 -17 -54 -18 -55 -18 -19 -1 39 38
139 77 200 27 42 83 84 139 104 44 15 63 17 63 6z m340 -186 c0 -2 -26 -12
-57 -22 -45 -14 -71 -31 -114 -74 -56 -57 -109 -146 -109 -184 0 -12 -5 -28
-11 -36 -8 -11 -9 -3 -6 32 9 98 100 232 182 269 35 16 115 26 115 15z m-910
-146 c5 9 9 9 14 1 4 -6 4 -16 1 -21 -4 -6 -1 -17 5 -25 8 -10 9 -15 2 -15
-20 0 -51 43 -68 94 -27 83 -27 84 6 17 21 -41 35 -59 40 -51z m1140 -64 c-62
-33 -135 -100 -166 -151 -14 -24 -31 -72 -39 -107 l-15 -63 4 63 c5 79 40 152
98 209 52 51 93 73 133 72 29 0 29 -1 -15 -23z m-789 -124 c47 -7 67 -45 29
-55 -25 -6 -66 31 -86 78 -23 55 -16 74 10 25 16 -32 30 -46 47 -48z m-2391
40 l-36 -17 14 -37 c14 -37 14 -38 -26 -85 -65 -78 -101 -108 -106 -92 -3 8
-10 26 -16 42 l-10 27 -37 -22 c-21 -13 -55 -32 -75 -42 l-38 -19 0 -96 0 -95
-59 -56 c-59 -56 -136 -108 -116 -79 6 8 1 5 -10 -8 -24 -26 -40 -30 -31 -7 3
9 2 12 -4 9 -6 -4 -9 -14 -8 -23 2 -11 -5 -18 -18 -20 -18 -3 -21 3 -23 44 -2
69 -19 116 -60 170 -46 61 -94 94 -137 94 -19 0 -34 3 -34 6 0 18 26 46 58 63
36 19 659 228 737 248 60 16 74 13 35 -5z m3520 -60 c0 -5 -18 -17 -40 -27
-48 -22 -139 -115 -169 -173 -12 -23 -28 -66 -36 -95 l-15 -52 4 56 c5 66 41
148 91 206 46 54 165 115 165 85z m-2530 -202 c85 -51 157 -94 159 -96 5 -5 2
-647 -3 -652 -4 -3 -352 192 -374 211 -10 7 -12 50 -11 169 0 87 4 160 7 162
7 3 104 -48 267 -142 49 -29 94 -52 99 -52 24 0 -29 32 -258 157 -55 30 -104
60 -108 67 -9 14 -10 290 -1 299 3 4 20 -2 37 -12 17 -10 101 -60 186 -111z
m1670 88 c0 -9 14 -30 30 -46 34 -34 40 -65 13 -60 -10 2 -26 19 -35 38 -20
42 -35 123 -19 100 6 -8 11 -23 11 -32z m1164 -69 c-50 -14 -125 -70 -171
-126 -53 -66 -83 -158 -83 -255 0 -72 11 -105 58 -165 19 -26 21 -33 9 -33
-21 0 -55 44 -68 90 -7 22 -10 83 -7 146 3 97 7 116 34 174 52 109 142 180
224 179 l35 -1 -31 -9z m-854 -89 c0 -20 9 -39 25 -54 26 -24 35 -53 13 -40
-9 5 -8 2 1 -9 8 -10 11 -21 7 -25 -4 -4 -16 3 -27 16 -31 39 -52 142 -29 142
6 0 10 -14 10 -30z m-3714 -31 c34 -20 44 -39 23 -39 -6 0 -24 -9 -40 -21 -52
-37 -137 -78 -180 -88 -36 -8 -48 -6 -81 12 -21 12 -38 24 -38 27 0 15 229
130 259 130 13 0 39 -9 57 -21z m544 -24 c0 -16 -6 -25 -15 -25 -15 0 -21 31
-8 43 13 14 23 6 23 -18z m1536 -70 c72 -41 137 -82 145 -91 10 -12 15 -58 19
-158 3 -78 5 -142 4 -144 -2 -4 -245 131 -296 164 l-38 24 0 146 c0 134 1 146
17 140 9 -4 76 -40 149 -81z m2735 20 c-36 -19 -78 -47 -94 -62 -41 -40 -94
-131 -106 -182 -13 -60 -25 -65 -17 -8 3 27 22 80 43 119 52 99 136 165 213
167 19 0 9 -8 -39 -34z m-4261 1 c0 -8 -6 -16 -12 -19 -10 -4 -10 -7 0 -18 27
-29 6 -51 -28 -29 -12 8 -13 13 -3 29 9 14 9 21 1 23 -17 6 1 28 23 28 10 0
19 -6 19 -14z m3491 -139 c32 -39 32 -60 1 -41 -22 14 -49 70 -56 120 l-6 39
15 -40 c9 -22 29 -57 46 -78z m-4334 54 c120 -87 153 -283 57 -340 -19 -12
-41 -21 -49 -21 -7 0 -20 -7 -29 -15 -21 -21 -174 -121 -281 -184 -49 -30
-101 -61 -115 -71 -28 -20 -334 -207 -517 -316 -67 -40 -186 -113 -265 -161
-79 -49 -197 -122 -263 -161 -66 -40 -160 -97 -209 -128 -48 -30 -85 -51 -82
-45 5 7 -3 10 -20 9 -19 -2 -29 -10 -36 -29 -12 -36 -64 -60 -131 -60 -154 -2
-254 166 -181 302 26 46 40 56 408 277 209 127 476 287 591 357 116 70 255
154 310 187 55 33 127 77 160 98 33 20 148 90 255 153 107 64 215 130 240 146
60 39 105 40 157 2z m835 -17 c3 -3 4 -14 1 -25 -8 -28 -33 -24 -33 6 0 23 18
34 32 19z m2046 -218 c9 -9 12 -50 10 -159 l-3 -147 -90 53 c-49 30 -125 73
-167 97 l-78 44 0 152 0 153 158 -91 c86 -50 163 -96 170 -102z m1520 157 c10
-23 10 -30 -4 -43 -15 -14 -15 -13 -5 6 8 17 7 25 -4 34 -16 13 -20 30 -7 30
4 0 13 -12 20 -27z m909 -30 c-3 -10 -5 -4 -5 12 0 17 2 24 5 18 2 -7 2 -21 0
-30z m-4472 7 c0 -8 -8 -16 -17 -18 -13 -2 -18 3 -18 18 0 15 5 20 18 18 9 -2
17 -10 17 -18z m3 -59 c-5 -24 -38 -27 -38 -3 0 10 3 21 6 25 11 11 35 -5 32
-22z m4479 -3 c-3 -7 -5 -2 -5 12 0 14 2 19 5 13 2 -7 2 -19 0 -25z m-4832 -4
c0 -12 -8 -20 -22 -22 -17 -3 -23 2 -23 16 0 20 16 33 35 28 6 -2 10 -11 10
-22z m1770 -24 c17 -11 85 -51 153 -87 l122 -67 0 -178 0 -177 -97 56 c-54 30
-128 73 -165 94 l-68 40 0 163 c0 89 3 166 7 169 10 10 15 9 48 -13z m-1417
-38 c3 -19 -1 -23 -15 -20 -10 2 -19 14 -21 26 -3 19 1 23 15 20 10 -2 19 -14
21 -26z m-350 -15 c3 -14 -1 -18 -20 -15 -12 2 -24 11 -26 21 -3 14 1 18 20
15 12 -2 24 -11 26 -21z m803 -642 l0 -650 -23 -16 c-40 -29 -119 -79 -124
-79 -2 0 -4 38 -4 84 0 226 -78 405 -204 466 -54 26 -140 40 -175 30 l-26 -8
25 -1 c20 -1 22 -3 10 -11 -12 -8 -10 -10 8 -10 l23 0 -19 -27 c-10 -16 -17
-33 -15 -38 2 -6 -5 -20 -16 -32 -11 -11 -17 -24 -14 -27 4 -3 2 -6 -4 -6 -6
0 -28 -27 -49 -60 -21 -33 -43 -60 -49 -60 -5 0 -3 -5 5 -10 11 -7 12 -10 2
-10 -20 0 -103 -91 -95 -103 3 -6 1 -7 -5 -3 -6 3 -49 -33 -98 -84 -48 -49
-94 -90 -103 -90 -14 0 -14 -2 -1 -10 13 -8 12 -10 -3 -10 -10 0 -15 -5 -12
-10 3 -6 -2 -13 -11 -17 -27 -10 -54 -35 -48 -45 3 -4 -1 -8 -9 -8 -7 0 -23
-9 -35 -20 -12 -11 -25 -20 -31 -20 -5 0 -29 -18 -52 -40 -24 -22 -44 -40 -45
-40 -3 0 1 23 11 63 4 15 5 27 2 27 -10 0 -74 -211 -90 -295 -9 -44 -19 -113
-23 -153 -5 -65 -9 -74 -30 -82 -12 -5 -48 -26 -78 -46 -30 -20 -60 -33 -65
-29 -8 4 -11 202 -11 638 l0 632 33 19 c17 11 66 39 107 62 41 24 89 52 105
64 33 22 223 136 320 190 33 19 71 41 85 50 14 10 84 50 155 91 72 40 153 87
180 104 28 18 104 64 170 104 66 39 127 76 135 81 60 37 176 99 183 97 4 -1 8
-295 8 -652z m1780 542 c140 -83 147 -89 153 -125 9 -55 7 -250 -2 -256 -5 -3
-44 16 -88 43 -43 26 -112 65 -151 87 l-73 39 -1 70 c-1 39 -3 109 -5 158 -2
66 0 85 9 80 7 -5 78 -47 158 -96z m1630 70 c-10 -9 -11 -8 -5 6 3 10 9 15 12
12 3 -3 0 -11 -7 -18z m-3868 -9 c14 -21 2 -49 -18 -42 -18 7 -21 68 -3 62 6
-2 16 -11 21 -20z m-352 -19 c7 -15 8 -24 0 -32 -14 -14 -41 9 -41 34 0 26 27
24 41 -2z m1509 -103 l185 -104 5 -171 c3 -94 1 -171 -3 -171 -16 0 -362 202
-374 218 -14 18 -19 332 -5 332 4 0 90 -47 192 -104z m2946 -1 c14 -19 35 -35
45 -35 11 0 19 -7 19 -15 0 -24 -34 -17 -63 13 -28 29 -57 90 -57 119 1 11 6
5 15 -15 8 -17 26 -48 41 -67z m-4101 35 c0 -18 -6 -26 -22 -28 -18 -3 -23 1
-23 21 0 28 9 39 30 35 9 -2 15 -14 15 -28z m-365 -1 c13 -24 8 -34 -15 -26
-16 7 -21 47 -5 47 5 0 14 -9 20 -21z m-380 -19 c-21 -14 -30 -12 -30 4 0 18
22 27 35 14 6 -6 5 -12 -5 -18z m2631 -74 l164 -94 3 -166 c1 -91 0 -166 -4
-166 -8 0 -233 123 -291 159 l-43 26 0 168 c0 92 2 167 4 167 2 0 77 -42 167
-94z m-2626 24 c0 -16 -6 -26 -17 -28 -14 -3 -18 3 -18 28 0 25 4 31 18 28 11
-2 17 -12 17 -28z m383 -8 c3 -17 -2 -22 -17 -22 -14 0 -21 6 -21 18 0 38 33
41 38 4z m356 12 c6 -17 -9 -44 -25 -44 -5 0 -9 14 -9 30 0 33 23 42 34 14z
m2523 -73 c48 -26 118 -65 156 -86 l67 -39 0 -152 0 -153 -87 53 c-49 29 -125
74 -170 100 l-83 48 0 150 c0 130 2 149 15 138 7 -6 54 -33 102 -59z m-3259
-3 c-4 -27 -33 -36 -42 -13 -8 22 1 35 25 35 15 0 20 -6 17 -22z m382 -14 c0
-26 -1 -27 -24 -18 -16 6 -22 35 -10 47 12 12 34 -6 34 -29z m1938 -124 l112
-63 0 -163 c0 -90 -2 -164 -4 -164 -4 0 -149 77 -281 149 -16 9 -33 21 -37 26
-4 6 -8 83 -8 173 l0 164 53 -30 c28 -16 103 -57 165 -92z m-2320 68 c-5 -34
-38 -37 -38 -4 0 20 5 26 21 26 15 0 20 -5 17 -22z m380 -6 c4 -23 -4 -27 -27
-13 -17 11 -7 45 12 39 6 -3 13 -14 15 -26z m2489 -11 c81 -49 237 -141 245
-143 9 -4 23 -312 14 -333 -6 -16 -8 -16 -24 -3 -22 19 -270 158 -283 158 -5
0 -9 75 -9 175 0 96 2 175 4 175 3 0 26 -13 53 -29z m-2487 -39 c0 -10 -6 -26
-13 -37 -18 -23 -30 -6 -21 30 7 29 34 34 34 7z m-380 -16 c0 -13 -7 -26 -15
-29 -19 -8 -25 4 -18 31 7 30 33 28 33 -2z m3607 -52 c54 -31 109 -64 123 -74
14 -10 49 -29 78 -44 l52 -26 0 -150 c0 -92 -4 -150 -10 -150 -5 0 -40 19 -77
43 -38 24 -114 69 -170 100 l-103 58 0 150 c0 82 2 149 5 149 2 0 48 -25 102
-56z m-1820 2 c43 -24 126 -71 186 -106 l107 -62 1 -74 c1 -41 1 -96 1 -124 0
-27 0 -73 -1 -101 l-1 -50 -27 19 c-16 10 -80 47 -143 82 -63 35 -139 78 -167
96 l-53 34 0 134 c0 120 6 196 16 196 2 0 39 -20 81 -44z m2698 -8 c11 -10 14
-222 3 -233 -3 -4 -16 -1 -28 5 -20 11 -22 17 -16 65 8 69 -1 113 -25 120 -22
7 -26 51 -6 58 15 6 59 -3 72 -15z m-4478 -21 c-2 -7 -13 -13 -25 -15 -16 -3
-22 2 -22 16 0 10 3 22 6 25 10 10 46 -13 41 -26z m2512 -31 c31 -18 104 -60
164 -92 l107 -59 0 -172 0 -172 -170 97 -170 97 0 168 c0 92 3 167 6 167 4 0
32 -15 63 -34z m1775 -1 c28 -22 29 -26 16 -49 -17 -32 -44 -33 -64 -4 -19 27
-20 50 -4 66 16 16 18 15 52 -13z m-1018 -71 c71 -42 146 -85 166 -95 l38 -19
0 -169 0 -170 -72 43 c-40 24 -116 68 -168 97 l-95 54 -3 168 c-1 92 -1 167 2
167 2 0 62 -34 132 -76z m1340 42 c24 -24 34 -43 34 -65 0 -17 5 -31 10 -31 6
0 10 6 10 13 0 8 9 22 21 33 21 19 21 18 55 -19 30 -32 35 -44 32 -79 -2 -28
-10 -45 -24 -55 -18 -12 -24 -11 -47 7 -15 12 -31 36 -36 53 l-9 32 -1 -42
c-1 -59 -9 -73 -40 -73 -80 0 -136 163 -80 234 26 34 34 33 75 -8z m-4616 -6
c0 -20 -5 -30 -15 -30 -10 0 -15 10 -15 30 0 20 5 30 15 30 10 0 15 -10 15
-30z m4242 -58 c-5 -1 -8 -13 -6 -25 4 -21 4 -21 -5 -2 -5 11 -10 28 -10 39
-1 16 1 17 15 5 9 -7 12 -15 6 -17z m-4238 -8 c8 -20 -23 -59 -36 -46 -13 13
1 62 17 62 7 0 16 -7 19 -16z m2219 -83 c56 -32 126 -70 155 -85 l52 -26 0
-179 0 -179 -97 57 c-54 32 -128 75 -165 95 l-68 37 0 132 c0 123 7 207 17
207 2 0 50 -26 106 -59z m772 -81 c44 -24 92 -52 108 -62 l27 -19 0 -165 c0
-128 -3 -164 -13 -164 -7 0 -17 4 -22 9 -18 16 -268 152 -272 147 -3 -2 28
-23 69 -46 40 -24 107 -63 149 -87 l76 -45 5 -127 c3 -69 2 -148 -1 -174 l-6
-48 -105 64 c-58 35 -126 76 -152 91 l-48 27 0 350 0 350 53 -29 c28 -16 88
-49 132 -72z m691 -42 l174 -102 0 -169 0 -168 -42 24 c-47 26 -181 98 -265
142 l-53 27 0 174 c0 96 3 174 6 174 3 0 84 -46 180 -102z m-1862 -17 c66 -37
151 -85 189 -105 l67 -37 0 -152 c0 -84 3 -162 6 -174 5 -19 -23 -6 -172 78
-99 55 -189 110 -201 121 -22 21 -23 29 -23 180 0 87 3 158 6 158 4 0 61 -31
128 -69z m3049 27 c17 -23 19 -33 11 -55 -14 -42 -49 -42 -74 -1 -23 38 -25
59 -8 76 19 19 49 10 71 -20z m-2211 -139 c58 -33 111 -66 117 -73 8 -9 11
-68 9 -179 l-3 -166 -55 33 c-30 18 -106 61 -167 96 l-113 63 0 174 0 173 53
-30 c28 -17 100 -58 159 -91z m608 17 c58 -32 129 -74 158 -92 l52 -34 0 -351
c0 -327 -1 -351 -17 -345 -10 4 -62 33 -116 64 -54 31 -121 71 -150 87 l-52
30 -3 173 c-1 94 0 172 2 172 3 0 49 -26 103 -57 179 -104 216 -124 220 -120
5 6 -69 53 -182 117 -55 31 -110 62 -122 70 -20 13 -22 21 -22 144 0 136 6
209 18 204 3 -2 53 -29 111 -62z m-1024 -144 c77 -43 149 -85 162 -93 21 -13
22 -18 22 -181 0 -93 -3 -168 -6 -168 -9 0 -210 116 -271 157 l-53 35 0 164
c0 90 2 164 4 164 2 0 66 -35 142 -78z m3809 -65 c4 -26 14 -42 33 -54 15 -9
29 -18 31 -20 3 -2 -7 -16 -22 -31 -29 -30 -47 -71 -47 -108 0 -30 -20 -32
-21 -1 -1 38 -33 82 -62 85 -35 4 -34 11 8 52 27 26 37 47 47 94 12 64 20 60
33 -17z m-2391 -27 c218 -115 197 -84 194 -283 l-3 -167 -120 71 c-66 39 -146
85 -177 102 l-58 30 0 164 c0 89 3 163 6 163 4 0 75 -36 158 -80z m-2193 -71
c9 -147 26 -195 108 -297 18 -23 32 -44 30 -46 -7 -6 -194 -30 -234 -30 -27 0
-58 11 -97 35 l-58 34 0 162 0 163 73 36 c75 39 145 64 162 60 6 -1 13 -54 16
-117z m1172 -61 l147 -83 0 -142 c0 -166 11 -155 -121 -119 -94 26 -112 34
-176 78 l-43 29 0 176 0 175 23 -15 c12 -9 88 -54 170 -99z m326 -187 c73 -44
137 -81 142 -81 5 0 9 -52 9 -115 l0 -114 -42 15 c-24 8 -52 18 -63 23 -11 5
-28 12 -38 15 -16 5 -15 9 12 32 36 30 38 46 10 85 -25 35 -69 41 -69 9 0 -17
5 -19 24 -14 18 4 27 1 35 -14 9 -16 6 -25 -16 -46 -30 -31 -30 -31 -105 -10
l-58 17 0 144 c0 112 3 144 13 140 6 -2 72 -41 146 -86z m590 25 c20 -12 96
-56 168 -97 l133 -74 0 -167 c0 -93 -2 -168 -4 -168 -3 0 -31 15 -63 34 -32
18 -103 57 -158 85 -55 29 -108 60 -117 68 -16 14 -18 37 -18 180 0 120 3 163
12 163 7 0 28 -11 47 -24z m-2249 -158 c0 -4 -27 -15 -61 -24 -48 -14 -59 -20
-53 -33 4 -9 9 -87 12 -173 4 -152 3 -158 -15 -158 -25 0 -77 38 -167 122
l-69 64 59 32 c148 81 172 97 162 108 -3 3 -24 -6 -47 -20 -22 -14 -44 -26
-49 -26 -4 0 -18 -9 -30 -20 -12 -11 -24 -21 -27 -21 -2 0 -22 -7 -42 -16 -21
-10 -45 -18 -53 -19 -77 -12 -309 -131 -470 -242 -91 -63 -323 -279 -314 -293
2 -4 -4 -5 -14 -2 -10 2 -26 -5 -36 -16 -11 -12 -23 -21 -28 -21 -5 0 -35 -17
-66 -37 -31 -21 -60 -38 -64 -38 -4 0 -15 -7 -25 -15 -10 -8 -35 -24 -56 -35
-20 -11 -37 -24 -37 -29 0 -5 -3 -7 -6 -3 -4 3 -13 -1 -21 -9 -8 -8 -19 -12
-24 -9 -5 4 -9 1 -9 -4 0 -6 -5 -11 -11 -11 -6 0 -48 -23 -93 -51 -108 -67
-103 -64 -166 -100 -30 -18 -118 -69 -195 -114 -77 -45 -169 -98 -205 -119
-36 -20 -81 -47 -101 -59 -63 -39 -239 -141 -293 -171 -28 -15 -58 -34 -66
-40 -8 -7 -77 -48 -152 -91 -228 -130 -247 -156 -161 -219 26 -19 69 -45 95
-58 26 -12 48 -26 48 -30 0 -5 4 -8 8 -8 8 0 256 -134 277 -150 6 -4 37 -22
70 -40 33 -18 98 -54 145 -80 47 -26 137 -77 200 -114 63 -37 124 -72 134 -78
11 -6 118 -66 239 -134 120 -68 220 -124 222 -124 3 0 37 -20 77 -44 40 -24
141 -82 223 -129 83 -46 210 -118 284 -161 73 -42 135 -76 137 -76 3 0 21 -10
42 -23 20 -13 62 -37 92 -54 30 -16 127 -72 215 -123 88 -51 207 -119 265
-152 58 -33 141 -81 185 -108 44 -26 150 -88 235 -137 85 -50 192 -113 238
-141 46 -29 85 -52 87 -52 3 0 46 -25 97 -56 211 -129 243 -127 488 18 138 81
420 243 590 338 52 29 127 72 165 95 100 60 371 215 575 329 96 54 191 109
211 121 20 13 67 39 105 59 38 20 89 48 114 62 25 14 100 57 167 95 310 174
378 214 381 221 2 4 8 8 13 8 8 0 59 28 294 160 22 12 45 26 50 30 6 4 42 24
80 45 76 41 365 204 565 319 69 40 165 95 213 122 107 58 131 91 99 133 -10
14 -54 46 -98 70 -43 24 -110 62 -149 84 -38 22 -72 41 -75 41 -3 0 -34 18
-70 41 -36 23 -90 54 -120 69 l-55 29 0 197 c0 109 2 197 5 195 3 -1 97 -54
210 -118 952 -532 911 -506 953 -587 26 -49 28 -61 22 -115 -3 -33 -11 -61
-16 -63 -5 -2 -9 -10 -9 -18 0 -8 -3 -14 -7 -14 -5 0 -26 -16 -48 -35 l-40
-35 37 2 c46 2 53 -4 38 -32 -9 -17 -9 -24 -1 -30 13 -7 12 -80 -1 -80 -4 0
-8 9 -8 20 0 11 -5 20 -11 20 -7 0 -9 -12 -5 -32 3 -18 2 -46 -3 -63 -9 -29
-9 -29 -10 13 -1 23 -5 42 -11 42 -5 0 -10 -7 -10 -16 0 -20 -24 -44 -44 -44
-15 0 -32 -37 -22 -47 7 -7 -40 -33 -59 -33 -7 0 -16 6 -18 13 -3 6 -6 2 -6
-10 -1 -13 3 -23 7 -23 4 0 8 -22 7 -50 -1 -27 3 -50 8 -50 4 0 5 4 2 10 -3 6
-1 10 6 10 7 0 9 10 7 25 -3 14 -1 28 3 31 8 5 14 -27 10 -50 -1 -5 6 -3 15 5
16 13 17 12 12 -8 -5 -19 -4 -20 12 -10 13 8 16 16 10 27 -9 17 -8 18 45 21
14 1 25 5 25 10 0 16 -5 24 -13 21 -11 -3 10 35 24 43 19 12 24 -6 6 -20 -11
-8 -14 -16 -8 -19 16 -10 39 46 35 84 -3 23 -1 30 5 21 5 -8 7 -21 4 -30 -4
-14 -3 -14 6 -1 6 8 11 59 11 114 0 55 2 97 5 94 3 -3 6 -48 6 -101 0 -77 -3
-103 -20 -136 -49 -94 -65 -106 -483 -345 -148 -85 -263 -144 -269 -140 -7 4
-9 3 -5 -4 4 -6 -34 -33 -96 -68 -110 -61 -573 -326 -933 -534 -238 -138 -613
-351 -930 -530 -110 -62 -215 -121 -234 -132 -19 -10 -40 -17 -48 -14 -8 3
-12 2 -9 -3 7 -11 -40 -41 -254 -164 -265 -151 -566 -324 -695 -400 -269 -157
-351 -182 -554 -175 -190 7 -210 16 -756 333 -175 102 -540 311 -605 347 -25
14 -117 67 -205 118 -88 50 -288 164 -445 252 -157 89 -555 315 -885 503 -552
315 -970 551 -1170 663 -273 152 -348 209 -387 296 -21 47 -23 67 -26 257 -2
134 1 222 8 249 13 50 80 126 148 168 46 28 522 311 652 387 161 94 243 142
505 297 154 90 399 234 545 318 146 84 375 218 509 297 l243 144 62 -15 c130
-33 296 -12 427 55 35 17 134 73 219 124 85 51 171 101 190 112 l35 20 58 -31
c31 -17 57 -34 57 -38z m965 12 c267 -25 502 -83 768 -189 109 -43 200 -90
360 -184 101 -59 139 -87 143 -104 4 -13 5 -25 3 -27 -8 -5 -277 -136 -474
-229 -110 -52 -348 -168 -530 -258 -181 -90 -364 -181 -405 -201 -134 -65
-149 -73 -150 -79 0 -3 35 -16 78 -28 76 -23 786 -277 1077 -386 83 -31 220
-81 305 -111 85 -31 157 -58 160 -61 12 -13 -97 -93 -206 -151 -276 -148 -684
-276 -974 -307 -36 -4 -74 -9 -85 -11 -90 -18 -293 -26 -535 -20 -349 8 -344
8 -352 20 -5 7 -8 5 -8 -4 0 -12 -2 -12 -9 -2 -7 11 -9 11 -14 -2 -5 -12 0
-16 21 -16 48 0 72 -11 73 -34 2 -20 2 -20 6 2 2 12 11 22 19 22 10 0 14 -14
15 -52 1 -80 15 -162 27 -166 8 -2 12 -34 12 -93 0 -65 3 -89 13 -89 9 0 11
-12 9 -40 -2 -22 -8 -40 -13 -40 -5 0 -9 -9 -9 -20 0 -11 -7 -20 -15 -20 -13
0 -15 -16 -13 -105 2 -58 0 -105 -4 -105 -5 0 -8 5 -8 10 0 6 -8 10 -17 10
-16 0 -16 -2 -3 -10 12 -8 9 -10 -10 -6 -14 3 -72 10 -130 17 -288 32 -662
170 -909 333 -166 110 -309 258 -384 396 -63 117 -66 145 -68 725 -1 351 3
541 10 585 8 42 32 106 69 180 53 108 64 122 177 236 79 79 152 141 215 183
112 73 340 188 390 196 39 6 47 0 201 -151 42 -41 79 -74 83 -74 3 0 6 7 6 15
0 8 5 15 11 15 6 0 10 -10 9 -22 -1 -13 -2 -29 -1 -37 1 -15 297 -319 343
-352 21 -16 3 29 -107 259 -125 261 -195 423 -209 484 -5 23 -2 28 27 37 50
16 251 50 357 59 136 13 526 14 655 2z m1016 -65 c154 -89 182 -106 191 -119
6 -9 -1 -186 -7 -194 -3 -3 -81 43 -94 55 -3 2 1 9 7 15 18 18 14 56 -8 78
-31 31 -48 25 -60 -20 -6 -22 -15 -38 -20 -35 -4 3 -3 21 3 41 10 34 9 38 -16
60 -35 30 -43 30 -50 2 -8 -27 -1 -38 24 -38 10 0 19 -2 19 -4 0 -2 3 -11 6
-20 9 -24 -16 -20 -78 14 l-55 30 -5 81 c-4 74 -1 129 8 129 2 0 63 -34 135
-75z m394 -218 l170 -94 3 -161 c1 -89 0 -162 -2 -162 -3 0 -31 14 -63 32
-116 63 -174 111 -188 156 -8 27 -10 27 52 -3 28 -13 64 -27 80 -31 l28 -6
-30 25 c-16 14 -49 31 -72 38 -24 6 -43 15 -43 20 0 4 17 21 37 38 31 26 34
31 19 37 -12 5 -25 -3 -45 -27 -26 -31 -31 -33 -52 -21 -68 37 -73 47 -77 153
-3 54 0 99 4 99 5 0 86 -42 179 -93z m-305 25 c0 -23 -26 -59 -36 -50 -8 9 15
68 27 68 5 0 9 -8 9 -18z m-4606 -244 c15 -29 15 -35 -1 -67 -14 -30 -18 -33
-21 -16 -2 11 -11 24 -18 30 -12 8 -11 16 3 47 10 21 19 37 20 38 1 0 9 -14
17 -32z m-480 -147 c10 -11 28 -22 42 -25 26 -7 33 -26 9 -26 -24 0 -74 -88
-81 -142 -7 -49 -24 -67 -24 -24 0 37 -20 86 -40 96 -10 6 -30 10 -44 10 -39
0 -39 15 2 44 46 32 69 70 77 127 11 73 17 77 30 16 7 -31 20 -66 29 -76z
m7496 -15 c14 -29 14 -35 -1 -59 -16 -28 -29 -26 -29 4 0 9 -7 20 -16 23 -16
6 -16 8 0 24 9 10 16 24 16 30 0 22 15 11 30 -22z m-5700 -173 c-41 -77 -79
-202 -80 -255 0 -30 -9 -35 -28 -16 -17 17 -15 29 3 22 9 -4 15 0 15 10 0 20
-14 21 -33 2 -12 -12 -19 -12 -48 2 -19 9 -36 19 -39 22 -3 4 -29 19 -57 35
-29 15 -53 32 -53 37 0 5 20 21 45 36 25 15 101 61 168 104 67 42 128 77 135
77 7 1 -5 -31 -28 -76z m6189 -92 c4 -8 16 -19 27 -25 10 -6 21 -12 23 -13 2
-1 -8 -16 -22 -33 -24 -28 -47 -86 -47 -118 0 -7 -4 -10 -10 -7 -5 3 -10 17
-10 29 0 28 -36 76 -56 76 -22 0 -17 13 16 45 18 17 32 43 36 64 10 61 16 69
26 31 5 -19 13 -41 17 -49z m-6449 -109 c82 -47 108 -72 76 -72 -9 0 -19 -6
-22 -14 -3 -7 -23 -21 -45 -31 -21 -10 -39 -21 -39 -25 0 -4 -13 -13 -30 -20
-16 -7 -30 -17 -30 -22 0 -10 8 -6 132 71 68 41 88 49 88 32 0 -5 10 -11 23
-13 l22 -3 3 -385 3 -385 -36 -28 -36 -29 -37 24 c-71 47 -94 60 -99 54 -3 -3
-12 2 -19 12 -7 9 -16 13 -21 9 -9 -10 26 -39 38 -31 5 3 9 1 9 -3 0 -5 20
-19 45 -33 40 -22 60 -50 37 -50 -5 0 -19 -9 -32 -20 -30 -26 -18 -25 29 2 35
20 41 21 67 8 48 -24 50 -24 30 -2 -20 23 -16 52 9 52 13 0 15 -19 15 -118 0
-93 4 -132 21 -181 19 -61 19 -64 2 -77 -10 -7 -21 -14 -25 -14 -5 0 -8 -5 -8
-11 0 -7 10 -5 25 5 13 9 26 16 28 16 2 0 25 -35 51 -77 25 -43 56 -90 68
-105 12 -15 19 -30 17 -33 -7 -7 -109 46 -109 57 0 4 -7 8 -15 8 -8 0 -15 5
-15 10 0 6 -4 10 -10 10 -8 0 -76 42 -89 56 -3 2 5 11 17 20 36 25 25 38 -12
15 -30 -19 -38 -20 -63 -9 -15 7 -30 15 -33 18 -9 11 -54 40 -62 40 -23 0 -2
-22 47 -50 30 -17 55 -36 55 -41 0 -5 7 -9 15 -9 12 0 78 -34 135 -70 76 -47
142 -80 152 -74 6 4 8 3 4 -4 -3 -6 7 -19 24 -28 37 -23 37 -28 0 -51 -16 -9
-30 -21 -30 -26 0 -6 5 -5 13 0 6 5 26 15 44 22 30 12 34 11 89 -34 31 -26 95
-72 142 -103 l85 -56 -28 -22 c-15 -12 -49 -32 -76 -45 -27 -12 -49 -26 -49
-31 0 -12 2 -12 90 38 l82 46 137 -65 c75 -36 160 -73 189 -83 28 -10 52 -21
52 -24 0 -3 -25 -19 -55 -35 -30 -15 -55 -32 -55 -37 0 -5 -4 -6 -10 -3 -5 3
-10 1 -10 -5 0 -6 -4 -8 -10 -5 -5 3 -10 1 -10 -5 0 -6 -4 -9 -9 -5 -5 3 -15
-1 -23 -8 -7 -7 -21 -16 -30 -20 -10 -3 -18 -12 -18 -19 0 -8 3 -9 8 -3 4 6
14 11 22 13 8 2 44 20 80 41 36 21 83 48 106 59 l40 20 88 -39 c89 -39 262
-135 271 -150 3 -4 -43 -34 -101 -66 -163 -89 -174 -96 -174 -105 0 -10 18 -1
180 91 68 39 129 69 135 66 5 -3 25 -14 44 -26 26 -16 36 -17 45 -8 8 9 7 11
-4 7 -8 -2 -28 8 -43 23 l-29 26 57 31 57 31 107 -9 c87 -8 264 -17 381 -19
14 -1 40 -10 59 -22 l34 -20 -64 -39 c-35 -21 -69 -43 -75 -49 -7 -5 -15 -7
-18 -4 -3 4 -6 1 -6 -5 0 -7 2 -12 5 -12 8 0 140 73 155 86 13 11 39 0 171
-75 160 -91 219 -129 219 -143 0 -4 -11 -10 -25 -14 -14 -3 -25 -9 -25 -13 0
-4 -22 -18 -50 -31 -27 -13 -50 -28 -50 -33 0 -6 -3 -8 -6 -5 -3 4 -22 -5 -41
-18 -20 -13 -40 -24 -46 -24 -6 0 -25 -11 -42 -25 -18 -13 -35 -21 -39 -18 -3
4 -6 2 -6 -4 0 -17 -33 -8 -77 20 -24 15 -47 27 -53 27 -6 0 -13 7 -16 15 -4
8 -10 12 -15 9 -5 -3 -9 0 -9 5 0 6 -7 11 -15 11 -8 0 -15 5 -15 11 0 5 -4 7
-10 4 -6 -3 -10 -1 -10 6 0 7 -3 10 -6 7 -3 -3 -17 5 -31 18 -14 13 -29 21
-34 18 -5 -3 -9 -2 -9 3 0 4 -18 19 -40 33 -22 13 -40 27 -40 30 0 3 16 14 35
24 19 11 35 23 35 27 0 5 6 6 14 3 13 -5 33 13 24 21 -4 4 -24 -5 -90 -43 -35
-20 -39 -20 -77 -5 -23 9 -41 20 -41 26 0 5 -7 7 -15 3 -8 -3 -15 -1 -15 4 0
6 -7 10 -15 10 -8 0 -15 4 -15 9 0 5 -18 17 -40 27 -22 10 -40 22 -40 27 0 5
-7 7 -15 3 -8 -3 -15 -1 -15 4 0 6 -4 10 -10 10 -24 0 -6 -17 52 -50 34 -19
78 -44 98 -55 19 -12 46 -27 59 -34 l24 -13 -24 -20 c-13 -10 -46 -30 -73 -44
-47 -25 -76 -47 -76 -58 0 -7 121 62 143 81 9 9 17 12 17 7 0 -5 6 -1 14 8 12
16 18 14 79 -22 37 -21 67 -37 67 -34 0 2 8 -3 18 -12 24 -22 171 -114 181
-114 5 0 15 -7 22 -16 11 -14 11 -18 -4 -29 -9 -7 -17 -18 -17 -25 0 -9 6 -7
20 5 11 10 20 14 20 9 0 -5 4 -3 9 5 8 12 20 8 68 -21 32 -20 65 -38 73 -40 8
-2 19 -8 25 -15 5 -6 51 -35 100 -63 101 -58 116 -70 97 -77 -7 -3 -18 -10
-25 -16 -7 -7 -24 -19 -37 -26 -221 -130 -261 -140 -368 -95 -37 15 -73 34
-80 41 -7 7 -18 13 -23 13 -6 0 -25 11 -43 25 -18 14 -36 22 -39 18 -4 -3 -7
-2 -7 3 0 5 -16 18 -35 28 -19 11 -35 23 -35 27 0 8 83 61 113 72 9 3 17 11
17 17 0 5 -16 2 -35 -7 -19 -9 -35 -20 -35 -25 0 -4 -7 -8 -15 -8 -9 0 -30
-10 -47 -23 -22 -16 -32 -18 -35 -9 -3 6 -11 12 -20 12 -8 0 -21 7 -30 15 -8
8 -19 13 -24 10 -5 -4 -9 -2 -9 4 0 5 -10 13 -22 17 -12 3 -26 10 -32 15 -22
18 -143 95 -179 114 -20 11 -37 23 -37 28 0 4 23 22 50 39 47 29 68 54 35 42
-8 -4 -15 -10 -15 -15 0 -5 -9 -9 -20 -9 -11 0 -20 -4 -20 -9 0 -5 -8 -11 -17
-15 -10 -3 -26 -11 -35 -18 -15 -10 -20 -9 -31 6 -8 11 -19 16 -25 12 -5 -3
-12 -3 -14 1 -4 10 -106 73 -117 73 -5 0 -14 7 -21 15 -7 8 -16 12 -21 9 -5
-3 -9 0 -9 5 0 6 -5 11 -10 11 -6 0 -21 9 -33 21 -12 11 -35 23 -50 26 -24 5
-27 10 -24 32 2 14 2 21 0 14 -4 -12 -43 -14 -43 -2 0 4 -10 11 -22 15 -13 3
-35 15 -49 25 -14 10 -29 16 -33 12 -3 -3 -6 -2 -6 4 0 6 -8 13 -17 17 -20 6
-82 42 -156 88 -46 29 -47 31 -30 50 16 18 16 18 -12 4 -23 -12 -31 -13 -37
-3 -4 7 -8 9 -8 4 0 -4 -17 3 -37 16 -21 13 -47 27 -58 31 -11 3 -51 26 -89
51 -38 24 -73 42 -78 39 -4 -3 -8 0 -8 6 0 6 -11 15 -25 20 -14 5 -25 14 -25
19 0 4 25 24 55 42 30 18 55 37 55 41 0 11 -62 -21 -72 -36 -4 -6 -8 -7 -8 -3
0 5 -13 -1 -29 -12 l-29 -21 -44 23 c-24 14 -75 42 -115 65 -39 22 -74 37 -77
34 -3 -3 -6 0 -6 6 0 7 -7 12 -15 12 -8 0 -15 4 -15 8 0 5 -11 15 -25 22 -34
18 -32 26 15 50 22 11 40 26 39 33 0 9 -2 9 -6 -1 -2 -6 -9 -10 -14 -6 -5 3
-9 0 -9 -5 0 -6 -6 -11 -14 -11 -7 0 -19 -6 -25 -14 -6 -7 -19 -12 -29 -11
-31 3 -72 17 -72 24 0 7 -44 32 -60 36 -3 0 -16 8 -30 17 -14 9 -65 39 -113
66 l-89 51 39 24 c21 14 84 50 141 81 56 32 102 61 102 67 0 10 -96 -36 -117
-56 -7 -8 -22 -17 -33 -20 -11 -3 -20 -11 -20 -16 0 -6 -4 -7 -10 -4 -5 3 -10
1 -10 -5 0 -6 -4 -9 -9 -6 -5 4 -11 1 -13 -4 -2 -6 -10 -12 -18 -13 -8 -2 -27
-11 -41 -20 -25 -17 -28 -17 -65 0 -22 10 -45 24 -52 31 -7 6 -20 12 -28 12
-8 0 -14 4 -14 8 0 5 -16 14 -35 22 -19 8 -35 17 -35 21 0 4 -9 9 -20 12 -33
9 -34 9 -47 26 -7 9 -13 12 -13 8 0 -4 -10 1 -22 13 -12 11 -30 20 -41 20 -23
0 -18 21 9 35 10 6 53 29 94 51 41 23 107 58 145 79 39 21 73 43 77 49 5 7 23
2 58 -17 27 -16 50 -25 50 -21 0 4 6 1 13 -8 18 -23 131 -83 125 -67 -3 8 -11
13 -17 12 -6 -2 -11 2 -11 8 0 5 -4 7 -10 4 -5 -3 -10 -1 -10 4 0 6 -7 11 -15
11 -8 0 -15 5 -15 10 0 6 -7 10 -15 10 -8 0 -15 4 -15 9 0 5 -10 13 -22 17
-12 3 -32 17 -46 29 l-24 22 44 25 c23 14 67 37 96 52 28 14 52 31 52 37 0 5
5 7 10 4 6 -3 10 -1 10 4 0 16 -20 13 -26 -4 -4 -8 -10 -12 -15 -9 -5 3 -9 0
-9 -6 0 -6 -4 -9 -9 -5 -5 3 -16 -1 -24 -9 -8 -8 -17 -12 -21 -9 -3 4 -6 0 -6
-7 0 -7 -3 -11 -6 -7 -3 3 -15 -3 -26 -13 -12 -10 -34 -22 -49 -25 -16 -4 -31
-10 -34 -15 -3 -5 -25 2 -49 15 -24 13 -47 21 -50 18 -3 -4 -6 -1 -6 5 0 7 -6
12 -14 12 -8 0 -22 7 -30 16 -9 8 -16 12 -16 7 0 -4 -4 -3 -8 4 -4 6 -14 13
-22 15 -8 2 -29 13 -47 26 -17 12 -39 22 -47 22 -9 0 -16 4 -16 9 0 5 -13 14
-29 21 -16 6 -32 18 -35 26 -3 8 -2 12 4 9 10 -6 89 45 90 58 0 4 -16 -4 -35
-18 -18 -15 -40 -28 -47 -29 -7 -2 -21 -7 -32 -11 -13 -6 -21 -3 -28 9 -5 9
-13 14 -19 11 -5 -4 -9 -2 -9 3 0 8 -71 46 -79 42 -2 -1 -7 3 -11 10 -4 6 -13
13 -21 15 -37 8 -59 18 -59 25 0 5 -10 12 -22 16 -13 4 -25 10 -28 14 -5 7
-86 52 -217 120 -34 18 -59 37 -57 44 4 10 353 216 367 216 3 0 44 -22 92 -50
48 -27 91 -50 96 -50 24 0 4 -20 -43 -45 -29 -15 -55 -31 -58 -35 -5 -7 -47
-31 -126 -73 -19 -9 -34 -22 -34 -27 0 -13 37 6 161 81 54 33 102 59 107 59 6
0 12 5 14 12 3 8 16 5 41 -11 41 -25 49 -20 15 10 -22 19 -22 20 -4 32 51 33
57 46 10 22 -50 -26 -53 -26 -78 -10 -14 10 -26 13 -26 9 0 -5 -6 -2 -13 6 -7
8 -38 28 -70 45 -31 16 -56 34 -54 40 3 9 219 138 313 186 l41 21 41 -26 c23
-14 47 -27 54 -28 7 -2 16 -7 20 -13 4 -5 10 -6 14 -2 9 9 -19 31 -68 54 -21
9 -38 21 -38 25 0 5 26 25 58 44 137 85 268 162 277 163 6 1 49 -21 95 -47z
m4119 -202 c32 0 32 -15 0 -17 -16 -1 -29 2 -29 7 0 6 -6 10 -14 10 -7 0 -20
7 -27 17 -13 15 -12 15 18 0 18 -10 41 -17 52 -17z m-91 -16 c62 -32 73 -20
-123 -129 -77 -42 -144 -81 -149 -86 -15 -14 -37 -11 -53 9 -8 9 -12 11 -8 5
4 -9 1 -11 -9 -7 -9 3 -14 10 -11 14 3 4 -2 11 -11 14 -8 3 -12 2 -9 -4 3 -6
-1 -7 -9 -4 -13 5 -12 9 7 24 12 9 41 27 65 39 23 12 47 32 51 44 5 12 29 34
53 50 24 15 50 36 57 46 19 26 79 20 149 -15z m182 -39 c3 0 44 -20 93 -44 70
-35 85 -46 76 -57 -14 -17 -24 -18 -41 -1 -21 18 -50 36 -80 50 -16 6 -28 17
-28 25 0 7 -4 11 -9 7 -5 -3 -12 -1 -16 5 -4 6 -10 8 -15 5 -5 -3 -11 -1 -15
5 -4 6 -11 8 -16 5 -5 -4 -9 -2 -9 3 0 17 13 21 34 10 11 -7 23 -12 26 -13z
m-75 -19 c11 -7 53 -31 94 -52 40 -22 108 -57 149 -79 42 -22 77 -45 79 -51 2
-5 -16 -21 -39 -34 -47 -26 -95 -60 -84 -60 4 0 40 18 81 41 l74 40 108 -63
c59 -34 136 -77 170 -95 84 -42 106 -59 98 -72 -3 -6 -11 -11 -16 -11 -11 0
-39 -25 -39 -33 0 -3 19 4 41 15 31 15 47 17 63 10 27 -13 255 -141 324 -182
l54 -32 -34 -21 c-18 -12 -36 -20 -40 -19 -5 1 -8 -2 -8 -6 0 -5 -18 -16 -40
-26 -22 -10 -40 -22 -40 -27 0 -6 42 12 93 39 91 49 92 50 117 32 28 -19 156
-92 258 -146 37 -20 71 -40 75 -44 8 -7 -304 -190 -323 -190 -5 0 -13 -7 -18
-16 -9 -15 -12 -15 -43 2 -19 11 -36 22 -37 27 -2 4 -8 5 -13 1 -5 -3 -9 0 -9
7 0 7 -3 10 -6 6 -3 -3 -15 3 -27 13 -11 11 -24 17 -29 14 -4 -3 -8 0 -8 6 0
6 -4 8 -10 5 -5 -3 -10 -1 -10 4 0 6 -7 11 -15 11 -8 0 -15 5 -15 11 0 5 -4 7
-10 4 -5 -3 -10 -1 -10 5 0 6 -4 8 -10 5 -5 -3 -10 -1 -10 4 0 6 -9 11 -21 11
-13 0 -18 4 -13 12 4 7 3 8 -4 4 -7 -4 -12 -2 -12 3 0 6 -6 11 -12 11 -7 1
-24 10 -38 21 -24 20 -24 21 -5 35 10 8 22 14 27 14 4 0 8 4 8 8 0 5 -7 9 -15
9 -8 0 -15 -4 -15 -9 0 -4 -7 -8 -15 -8 -8 0 -15 -5 -15 -10 0 -6 -13 -4 -30
5 -16 8 -33 16 -37 16 -5 0 -14 5 -20 11 -7 6 -13 7 -13 2 0 -5 -5 -1 -11 9
-6 9 -14 15 -20 12 -5 -4 -9 -1 -9 5 0 6 -4 8 -10 5 -5 -3 -10 -1 -10 6 0 7
-3 9 -6 6 -4 -4 -14 1 -23 11 -9 10 -31 25 -48 33 -18 7 -33 18 -33 22 0 5 -6
7 -12 4 -7 -2 -20 3 -28 12 -8 9 -32 24 -52 33 -34 16 -51 38 -30 38 4 0 18 9
32 20 14 11 18 19 10 18 -8 -2 -17 -5 -20 -8 -26 -26 -49 -28 -86 -5 -21 13
-42 21 -46 19 -5 -3 -8 0 -8 5 0 6 -6 11 -14 11 -8 0 -16 4 -18 9 -1 5 -10 11
-18 13 -8 2 -21 9 -28 16 -8 7 -17 10 -22 7 -4 -3 -11 2 -14 11 -4 9 -9 14
-12 11 -4 -3 -15 3 -27 13 -11 11 -23 17 -28 15 -4 -3 -14 1 -22 9 -8 8 -17
12 -21 9 -3 -4 -6 -1 -6 5 0 6 -16 19 -36 28 l-36 17 26 20 c14 10 26 24 26
30 0 8 -3 8 -8 2 -4 -6 -20 -16 -35 -23 -26 -11 -34 -9 -90 24 -34 20 -67 37
-74 37 -7 0 -14 6 -17 14 -3 7 -10 13 -15 13 -17 0 -181 100 -181 110 0 6 5
10 10 10 19 0 25 2 52 21 14 10 29 19 32 19 4 0 37 18 74 40 63 37 170 95 182
99 3 0 14 -5 25 -13z m291 -87 c3 -6 28 -21 55 -34 48 -22 48 -22 23 -33 -21
-10 -28 -9 -46 8 -12 11 -28 20 -35 20 -7 0 -13 5 -13 10 0 6 -7 10 -15 10 -8
0 -15 4 -15 8 0 22 34 30 46 11z m-754 -75 l32 -16 -35 -29 c-19 -16 -92 -58
-162 -95 l-128 -66 -64 28 -64 28 162 84 c89 46 166 87 171 92 9 9 35 1 88
-26z m998 -68 c41 -22 82 -44 90 -47 9 -4 48 -28 87 -53 39 -25 77 -46 83 -46
10 0 9 -4 0 -15 -7 -8 -16 -15 -21 -15 -10 0 -112 62 -120 74 -4 5 -12 5 -18
2 -6 -4 -14 0 -17 8 -3 9 -10 13 -15 10 -5 -3 -9 3 -9 13 0 13 -3 14 -8 5 -6
-9 -13 -8 -28 6 -10 10 -34 25 -51 32 -18 8 -33 18 -33 22 0 5 -7 8 -15 8 -25
0 -65 23 -65 37 0 23 54 7 140 -41z m-768 -62 c95 -52 177 -99 181 -103 4 -5
-6 -14 -22 -21 -17 -7 -31 -16 -31 -20 0 -4 -13 -13 -30 -20 -16 -7 -30 -16
-30 -21 0 -5 16 -1 35 8 19 9 35 21 35 25 0 5 4 7 9 3 5 -3 12 -1 15 4 3 5 17
12 32 15 20 5 44 -4 107 -42 45 -27 120 -70 167 -96 91 -51 126 -74 119 -79
-2 -2 -82 -45 -178 -96 -179 -95 -200 -101 -235 -66 -8 8 -17 15 -21 15 -4 0
-37 18 -74 39 -37 22 -74 41 -82 43 -8 2 -19 10 -26 18 -7 8 -13 11 -13 6 0
-5 -11 1 -25 14 -21 20 -24 31 -24 84 1 33 -3 62 -9 64 -42 14 -297 104 -334
119 -27 10 -48 20 -48 23 0 3 46 31 102 60 56 30 117 65 134 77 18 12 34 19
37 17 2 -3 10 2 17 11 7 8 14 15 16 15 2 0 81 -43 176 -96z m1731 51 c-3 -9
-8 -14 -10 -11 -3 3 -2 9 2 15 9 16 15 13 8 -4z m24 -30 c-4 -8 -1 -17 5 -21
6 -4 8 -3 5 2 -3 6 -2 16 3 24 7 11 25 6 94 -30 47 -25 86 -47 86 -50 0 -3
-44 -27 -98 -55 -53 -27 -99 -53 -102 -57 -3 -4 -43 12 -89 36 -48 25 -79 46
-72 50 6 4 20 4 31 1 15 -5 23 0 30 17 10 22 10 21 5 -5 -5 -25 -4 -26 13 -16
11 7 19 19 18 28 -1 11 6 15 20 14 17 -2 21 2 17 17 -4 16 -2 19 12 14 11 -5
16 -2 15 7 -3 22 -1 39 6 39 3 0 4 -7 1 -15z m-6845 -100 c24 -14 69 -39 101
-57 31 -18 57 -36 57 -39 0 -4 -13 -11 -28 -17 -16 -5 -35 -16 -43 -25 -8 -8
-41 -27 -72 -42 -31 -16 -57 -31 -57 -35 0 -4 -20 -15 -45 -24 -25 -10 -45
-21 -45 -24 0 -4 -13 -13 -29 -20 -26 -11 -34 -10 -77 14 -83 46 -104 64 -104
89 0 30 32 55 170 131 58 32 107 62 108 66 6 13 19 9 64 -17z m7224 -72 c80
-43 150 -86 155 -95 14 -26 1 -45 -54 -79 -29 -17 -65 -41 -81 -52 l-29 -20
-46 23 c-25 12 -101 55 -168 96 -67 41 -127 74 -133 74 -23 0 -8 18 30 35 21
10 68 35 102 56 35 21 66 38 71 39 4 0 73 -35 153 -77z m-826 -70 c37 -12 81
-18 135 -17 104 2 115 3 115 15 0 5 7 9 15 9 22 0 64 22 67 35 2 9 11 8 36 -5
l32 -18 -32 -13 c-18 -7 -35 -16 -38 -20 -8 -11 -215 -119 -228 -119 -6 0 -31
14 -55 30 -25 17 -47 30 -50 30 -3 0 -44 23 -92 50 -48 28 -91 50 -96 50 -5 0
-9 3 -9 8 0 4 -19 15 -41 25 -39 17 -40 19 -25 36 16 18 21 17 114 -29 53 -27
122 -56 152 -67z m-6000 -76 c99 -52 130 -77 97 -77 -9 0 -17 -4 -19 -8 -1 -5
-42 -28 -90 -52 -49 -24 -88 -48 -88 -52 0 -5 -5 -6 -12 -2 -6 4 -17 -1 -25
-11 -7 -11 -13 -15 -13 -11 0 4 -15 -4 -32 -18 -35 -26 -88 -44 -88 -29 0 5
-20 17 -45 28 -25 11 -45 23 -45 27 0 3 -20 14 -45 24 -25 9 -45 19 -45 23 0
3 -25 19 -55 36 -58 31 -66 42 -37 52 9 4 71 38 137 76 66 39 132 77 148 84
15 8 27 19 27 24 0 6 28 -6 63 -25 34 -19 109 -59 167 -89z m6475 59 c22 -15
156 -86 254 -135 l64 -33 -64 -39 c-35 -22 -93 -54 -129 -72 -36 -17 -71 -37
-78 -44 -17 -17 -42 -16 -66 2 -10 8 -23 12 -29 8 -6 -3 -7 -1 -3 5 6 10 -30
28 -46 24 -5 -1 -8 3 -8 9 0 5 -4 7 -10 4 -5 -3 -10 -1 -10 6 0 7 -3 10 -6 7
-3 -4 -14 2 -25 13 -11 11 -24 17 -29 14 -6 -4 -10 -2 -10 2 0 5 -34 28 -75
52 -41 23 -75 44 -75 47 0 2 19 12 42 22 24 9 90 41 147 70 111 56 126 59 156
38z m-1122 -145 c58 -39 123 -71 131 -64 3 4 6 1 6 -4 0 -16 158 -105 172 -97
6 4 8 3 4 -4 -3 -6 1 -15 10 -20 18 -10 3 -20 -161 -107 -49 -26 -95 -52 -102
-57 -7 -5 -29 -18 -49 -29 -35 -17 -39 -18 -56 -2 -10 9 -18 12 -18 7 0 -5 -4
-4 -8 2 -8 13 -144 93 -153 90 -4 0 -16 8 -28 18 -12 11 -21 16 -21 12 0 -4
-7 0 -16 8 -8 9 -22 16 -30 16 -8 0 -14 4 -14 8 0 5 -16 17 -35 28 -19 10 -34
23 -32 29 4 11 3 11 122 73 44 23 112 59 150 81 39 21 74 39 78 40 5 1 27 -12
50 -28z m-5175 -14 c20 -13 71 -41 112 -63 41 -21 77 -42 80 -45 3 -3 19 -11
35 -17 17 -7 43 -23 59 -36 l29 -23 -114 -58 c-63 -32 -117 -62 -120 -67 -3
-5 -10 -9 -14 -8 -4 1 -17 -7 -30 -18 -12 -11 -38 -25 -57 -31 -32 -11 -40 -8
-127 39 -50 27 -94 50 -96 50 -7 0 -109 63 -115 70 -3 4 -13 9 -22 13 -28 10
-21 23 27 51 25 15 45 31 45 37 0 6 4 8 9 4 5 -3 63 24 128 60 65 35 121 64
126 65 4 0 24 -10 45 -23z m4637 -105 c38 -21 70 -43 72 -49 2 -5 -12 -18 -32
-29 -19 -10 -35 -22 -35 -27 0 -4 -4 -6 -9 -3 -5 3 -25 -5 -44 -18 -19 -13
-38 -22 -41 -18 -3 3 -6 1 -6 -5 0 -6 -10 -13 -23 -17 -13 -3 -40 -17 -60 -30
l-37 -25 0 169 0 170 73 -39 c40 -22 104 -57 142 -79z m181 -106 c43 -25 82
-42 87 -39 6 3 7 2 4 -4 -3 -5 36 -33 88 -62 51 -28 104 -60 116 -70 l23 -19
-69 -36 c-73 -37 -105 -59 -105 -70 0 -7 81 32 90 43 15 18 108 59 116 51 9
-9 108 -67 267 -157 42 -24 77 -47 77 -51 0 -8 -95 -69 -165 -106 -72 -39
-162 -90 -170 -98 -4 -3 -47 21 -97 54 -49 33 -92 57 -95 54 -4 -3 -11 1 -17
9 -6 8 -46 34 -89 59 l-78 44 76 41 c41 23 75 46 75 52 0 6 -38 -10 -84 -35
l-85 -45 -91 55 c-51 30 -97 56 -103 57 -11 2 -18 7 -52 35 -8 7 -20 10 -25 7
-6 -3 -10 -1 -10 5 0 6 -13 16 -29 21 -15 5 -34 21 -42 35 -12 24 -11 27 11
45 14 10 63 39 110 64 122 64 165 89 168 98 6 13 18 8 98 -37z m768 -18 c96
-59 288 -168 296 -168 5 0 11 -4 15 -9 5 -9 -4 -15 -82 -57 -18 -10 -33 -21
-33 -26 0 -4 -8 -8 -18 -8 -10 0 -23 -5 -28 -10 -6 -6 -52 -32 -103 -59 l-93
-50 -32 19 c-69 38 -81 45 -94 58 -7 7 -17 10 -21 7 -5 -2 -16 4 -26 15 -10
11 -21 17 -25 15 -4 -3 -11 2 -14 11 -4 9 -13 14 -21 10 -9 -3 -15 0 -15 10 0
8 -4 12 -10 9 -5 -3 -10 -1 -10 5 0 6 -4 8 -10 5 -5 -3 -10 -1 -10 4 0 6 -7
11 -15 11 -8 0 -15 4 -15 9 0 5 -9 11 -20 14 -27 7 -25 21 5 35 14 6 25 16 25
22 0 5 4 9 8 8 5 -2 42 16 83 39 86 49 202 111 208 112 2 1 27 -13 55 -31z
m-3227 -150 c-3 -8 -6 -5 -6 6 -1 11 2 17 5 13 3 -3 4 -12 1 -19z m4923 -8 c0
-5 -5 -10 -11 -10 -5 0 -7 5 -4 10 3 6 8 10 11 10 2 0 4 -4 4 -10z m-2676
-130 c85 -47 155 -87 156 -90 0 -3 -24 -18 -52 -33 -87 -44 -153 -82 -156 -89
-2 -5 -12 -8 -23 -8 -10 0 -19 -4 -19 -9 0 -7 -108 -61 -124 -61 -3 0 -6 5 -6
11 0 5 5 7 12 3 8 -5 9 0 5 15 -5 19 -3 20 11 9 13 -11 15 -11 10 3 -4 9 0 27
9 39 19 27 32 157 14 146 -8 -5 -11 8 -11 42 0 27 -3 64 -6 82 -6 26 -4 31 9
29 9 -2 86 -42 171 -89z m-2224 -4 c0 -3 -4 -8 -10 -11 -5 -3 -10 -1 -10 4 0
6 5 11 10 11 6 0 10 -2 10 -4z m2452 -135 c29 -16 74 -41 100 -56 26 -14 52
-24 58 -20 6 4 9 1 8 -7 -2 -7 5 -12 14 -12 10 1 15 -2 13 -7 -3 -4 21 -22 55
-39 33 -17 60 -34 60 -39 0 -5 -46 -35 -102 -66 -57 -32 -137 -77 -178 -100
-63 -36 -76 -40 -88 -29 -12 13 -21 16 -39 13 -3 0 -10 6 -15 15 -5 9 -13 14
-19 11 -5 -4 -9 -1 -9 5 0 6 -4 8 -10 5 -5 -3 -10 -1 -10 5 0 6 -4 9 -9 6 -5
-4 -11 -3 -13 2 -4 9 -135 91 -191 119 l-39 19 149 85 c122 69 168 95 210 118
2 0 26 -12 55 -28z m-477 -181 c-3 -5 -12 -10 -18 -10 -7 0 -6 4 3 10 19 12
23 12 15 0z m129 -60 c47 -27 130 -73 184 -101 53 -28 99 -53 101 -55 2 -2 -7
-8 -21 -13 -14 -5 -54 -27 -89 -48 -35 -22 -107 -63 -161 -91 l-96 -52 -68 42
c-37 24 -71 42 -75 41 -5 -2 -9 2 -9 7 0 6 -7 10 -15 10 -8 0 -15 5 -15 10 0
6 -7 10 -15 10 -8 0 -15 5 -15 11 0 5 -4 7 -10 4 -5 -3 -10 -2 -10 2 0 5 -27
23 -61 42 l-61 33 29 20 c15 10 57 34 93 53 36 18 101 54 145 79 44 25 80 46
81 46 1 0 40 -22 88 -50z m-281 -13 c3 -7 -3 -13 -14 -14 -15 -1 -16 1 -6 12
15 18 14 18 20 2z m-53 -34 c-11 -17 -11 -17 -6 0 3 10 6 24 7 30 0 9 2 9 5 0
3 -7 0 -20 -6 -30z m-40 7 c0 13 1 13 10 0 12 -19 13 -33 1 -26 -5 3 -11 -1
-15 -9 -3 -8 -14 -15 -24 -15 -10 0 -27 -8 -37 -18 -18 -17 -21 -17 -57 1 -43
22 -44 26 -5 29 15 1 27 5 27 9 0 9 21 6 37 -4 9 -6 11 -3 6 9 -4 11 -2 15 4
11 6 -4 16 0 23 9 11 12 15 12 21 2 7 -10 9 -10 9 2z m-142 -83 c12 -5 22 -12
22 -16 0 -4 -76 -52 -170 -105 l-170 -97 -47 28 c-27 15 -54 33 -61 40 -7 7
-20 13 -28 13 -8 0 -14 5 -14 10 0 6 -9 10 -20 10 -27 0 -25 18 3 25 12 3 63
14 112 25 50 10 111 26 138 34 27 8 47 10 47 4 0 -5 7 -2 16 6 8 9 21 16 27
17 20 1 49 7 53 11 6 7 68 3 92 -5z m110 -65 c34 -22 65 -39 185 -105 107 -58
131 -77 109 -85 -7 -2 -18 -9 -25 -16 -6 -6 -44 -28 -83 -48 -38 -20 -107 -59
-151 -86 -79 -49 -82 -50 -99 -31 -9 10 -21 16 -25 13 -5 -3 -9 -1 -9 4 0 6
-7 12 -15 16 -28 10 -15 -13 15 -29 17 -9 30 -19 30 -24 0 -8 -155 -103 -250
-154 -19 -10 -45 -25 -57 -33 -20 -12 -27 -12 -59 7 -20 11 -43 27 -51 35 -22
22 -52 36 -63 29 -6 -3 -10 1 -10 10 0 11 -5 15 -15 11 -8 -3 -15 -1 -15 5 0
5 -8 13 -17 16 -10 4 -24 13 -31 20 -8 7 -17 11 -22 8 -4 -3 -10 2 -14 10 -3
8 -15 15 -27 15 -12 0 -19 3 -16 7 4 3 -4 14 -18 23 l-26 17 26 17 c14 9 25
22 25 29 0 8 -3 8 -8 2 -4 -6 -20 -16 -36 -23 -27 -12 -34 -9 -113 38 -46 28
-89 51 -95 53 -6 1 -20 9 -30 17 -10 8 -21 13 -25 12 -3 -2 -9 0 -12 6 -3 5
-31 23 -61 39 -30 17 -56 35 -57 40 -8 24 74 45 245 64 97 10 187 21 200 24
14 3 22 1 23 -7 0 -10 2 -10 6 0 3 9 30 -1 91 -34 48 -26 97 -54 110 -62 l23
-15 -43 -24 c-24 -14 -45 -28 -48 -31 -3 -4 -17 -13 -32 -19 -16 -7 -28 -17
-28 -23 0 -13 6 -13 22 3 7 6 42 27 78 46 l65 34 62 -32 c34 -17 94 -51 133
-76 38 -26 74 -44 79 -40 5 3 12 0 14 -5 3 -6 4 -5 3 2 -1 7 -12 14 -24 16
-12 2 -22 8 -22 13 0 5 -7 9 -16 9 -9 0 -12 5 -8 12 4 7 3 8 -4 4 -7 -4 -12
-2 -12 4 0 6 -4 8 -10 5 -5 -3 -10 -1 -10 4 0 6 -4 11 -9 11 -5 0 -41 20 -81
44 -50 31 -67 47 -58 52 7 5 15 9 18 9 3 0 35 18 73 39 137 77 252 132 267
128 8 -3 26 -12 38 -20z m-2092 -1 c16 -5 84 -19 152 -32 67 -12 122 -25 122
-29 0 -12 -30 -21 -43 -13 -7 3 -9 3 -5 -2 7 -7 -7 -18 -49 -40 -7 -4 -27 4
-45 18 -18 13 -48 30 -65 38 -18 8 -33 17 -33 21 0 5 -4 8 -10 8 -5 0 -24 9
-42 20 -35 21 -29 25 18 11z m892 -87 c12 -4 22 -10 22 -15 0 -13 -23 -10 -44
6 -21 16 -15 18 22 9z m58 -9 c-11 -8 -22 -12 -25 -9 -6 6 19 24 34 24 6 -1 1
-7 -9 -15z m407 -310 c20 -14 37 -22 37 -18 0 4 4 3 8 -3 15 -22 162 -105 173
-98 7 4 9 3 5 -4 -4 -6 15 -22 44 -38 52 -29 63 -44 31 -44 -11 0 -22 -4 -25
-9 -8 -12 -269 -161 -283 -161 -6 0 -13 -6 -15 -12 -4 -10 -14 -8 -41 7 -20
11 -37 23 -37 27 0 5 -5 8 -11 8 -6 0 -17 7 -26 15 -8 8 -19 13 -24 10 -5 -4
-9 -1 -9 6 0 7 -3 9 -7 6 -3 -4 -11 0 -17 9 -6 8 -18 16 -27 17 -8 2 -26 12
-39 24 -12 12 -27 20 -32 17 -4 -3 -8 -1 -8 3 0 5 -20 19 -45 33 -41 22 -43
26 -29 41 9 10 66 45 127 80 62 34 130 73 152 86 50 29 52 29 98 -2z"/>
<path d="M4851 8174 c0 -11 3 -14 6 -6 3 7 2 16 -1 19 -3 4 -6 -2 -5 -13z"/>
<path d="M5212 7940 c0 -14 2 -19 5 -12 2 6 2 18 0 25 -3 6 -5 1 -5 -13z"/>
<path d="M6510 7210 c0 -16 4 -30 9 -30 12 0 24 37 16 50 -12 20 -25 10 -25
-20z"/>
<path d="M6567 7142 c-5 -7 -18 -12 -29 -10 -12 2 -23 -3 -25 -10 -3 -8 3 -11
17 -10 15 2 24 -3 25 -15 2 -9 -1 -14 -7 -11 -5 4 -5 -3 2 -16 6 -12 14 -19
17 -16 4 3 12 1 19 -5 22 -18 81 37 61 58 -10 9 -27 -8 -27 -28 0 -12 -7 -19
-19 -19 -17 0 -20 8 -23 48 -2 30 -6 42 -11 34z"/>
<path d="M6701 7088 c0 -7 4 -22 9 -33 7 -18 8 -19 15 -2 4 9 5 24 1 32 -7 18
-26 20 -25 3z"/>
<path d="M6762 7076 c7 -8 15 -12 17 -11 5 6 -10 25 -20 25 -5 0 -4 -6 3 -14z"/>
<path d="M6910 7073 c14 -3 31 -10 38 -15 8 -7 12 -7 12 0 0 13 -25 22 -53 21
-19 -2 -19 -2 3 -6z"/>
<path d="M6740 7006 c-24 -56 -25 -67 -7 -60 8 3 14 19 15 35 0 17 6 37 13 45
6 8 9 17 6 21 -4 3 -16 -15 -27 -41z"/>
<path d="M7004 7010 c16 -20 25 -39 21 -51 -3 -11 -8 -29 -11 -41 l-6 -23 26
24 26 25 28 -21 c32 -24 39 -47 21 -80 -19 -36 -58 -27 -88 20 -20 30 -30 37
-55 37 l-31 -1 32 -14 c17 -7 39 -27 48 -44 15 -30 15 -31 -7 -30 -28 1 -107
48 -122 72 -11 19 -4 28 50 65 17 11 17 12 -6 6 -14 -3 -33 -14 -42 -25 -10
-12 -19 -15 -23 -9 -11 17 -23 11 -18 -9 6 -23 -11 -34 -51 -33 -23 1 -27 -2
-16 -9 11 -8 5 -9 -20 -5 -42 8 -44 9 123 -89 75 -44 79 -46 103 -30 13 8 24
11 24 6 0 -15 31 -42 41 -36 5 4 9 14 9 24 0 10 25 44 56 77 107 115 102 175
-18 189 -26 3 -64 13 -84 21 l-37 16 27 -32z m-47 -206 c-3 -3 -12 -4 -19 -1
-8 3 -5 6 6 6 11 1 17 -2 13 -5z m53 -14 c0 -5 -2 -10 -4 -10 -3 0 -8 5 -11
10 -3 6 -1 10 4 10 6 0 11 -4 11 -10z"/>
<path d="M6910 7016 c0 -2 7 -6 15 -10 8 -3 15 -1 15 4 0 6 -7 10 -15 10 -8 0
-15 -2 -15 -4z"/>
<path d="M7060 6886 c0 -8 5 -18 10 -21 6 -3 10 3 10 14 0 12 -4 21 -10 21 -5
0 -10 -6 -10 -14z"/>
<path d="M7310 6890 c0 -5 7 -10 16 -10 8 0 12 5 9 10 -3 6 -10 10 -16 10 -5
0 -9 -4 -9 -10z"/>
<path d="M7000 6706 c0 -3 9 -10 20 -16 11 -6 20 -8 20 -6 0 3 -9 10 -20 16
-11 6 -20 8 -20 6z"/>
<path d="M6895 5745 c19 -197 73 -421 136 -569 105 -246 271 -430 418 -466 99
-24 206 32 256 134 47 95 57 150 60 331 2 94 2 161 -1 150 -12 -47 -12 -46
-49 -31 -26 11 -35 12 -35 3 0 -8 -3 -8 -9 1 -4 8 -27 16 -50 19 -22 3 -41 10
-41 14 0 5 -6 9 -12 10 -7 0 -35 11 -63 24 -27 13 -53 21 -56 19 -4 -2 -9 3
-13 11 -3 8 -13 15 -21 15 -9 0 -26 5 -38 12 -12 7 -31 13 -42 15 -10 2 -23 9
-27 16 -4 6 -8 8 -8 2 0 -5 -4 -4 -9 4 -5 8 -23 14 -40 14 -17 0 -31 4 -31 9
0 5 -12 8 -27 6 -19 -2 -27 1 -25 10 1 8 -2 11 -7 8 -5 -4 -42 -1 -83 6 -54 9
-79 19 -95 37 -15 16 -23 19 -24 10 -1 -28 -26 57 -33 112 -6 44 -4 60 8 71
13 14 11 19 -16 44 l-30 29 7 -70z"/>
<path d="M6620 4646 c0 -2 8 -10 18 -17 15 -13 16 -12 3 4 -13 16 -21 21 -21
13z"/>
<path d="M8240 4335 c0 -8 5 -15 10 -15 6 0 10 7 10 15 0 8 -4 15 -10 15 -5 0
-10 -7 -10 -15z"/>
<path d="M4717 7763 c-11 -11 -8 -23 6 -20 8 1 13 -16 15 -55 4 -82 22 -72 22
12 0 61 -2 70 -18 70 -10 0 -22 -3 -25 -7z"/>
<path d="M4800 7722 c0 -14 23 -32 42 -32 24 0 23 -14 -7 -58 -29 -42 -31 -52
-11 -52 12 0 73 107 65 114 -10 8 -73 36 -81 36 -4 0 -8 -4 -8 -8z"/>
<path d="M4734 7402 c-9 -13 -8 -21 3 -31 9 -8 13 -28 11 -54 -1 -25 2 -42 10
-45 9 -3 12 17 12 72 0 78 -12 97 -36 58z"/>
<path d="M4806 7330 c-5 -39 -3 -57 11 -80 37 -64 75 -40 69 43 -3 38 -9 54
-27 68 -37 28 -46 23 -53 -31z m52 8 c17 -17 15 -28 -7 -28 -22 0 -35 15 -26
30 8 13 18 13 33 -2z m12 -73 c0 -29 -12 -32 -34 -9 -23 22 -20 34 9 34 20 0
25 -5 25 -25z"/>
<path d="M5135 7539 c-3 -4 8 -15 25 -24 36 -19 37 -22 5 -51 -29 -26 -32 -46
-10 -64 13 -11 15 -9 15 13 0 16 12 35 32 52 l32 27 -29 23 c-33 27 -63 37
-70 24z"/>
<path d="M5496 7317 c-16 -12 -16 -14 -2 -26 11 -9 16 -30 16 -67 0 -30 5 -54
10 -54 12 0 14 147 1 154 -4 3 -16 0 -25 -7z"/>
<path d="M5146 7193 c-3 -4 -6 -23 -6 -42 0 -31 4 -38 30 -48 20 -8 30 -18 30
-32 0 -22 -24 -29 -35 -11 -8 12 -25 13 -25 1 0 -15 48 -41 64 -35 11 4 16 20
16 50 0 42 -1 44 -30 44 -25 0 -30 4 -30 25 0 28 26 34 49 13 11 -11 13 -10 9
2 -5 16 -62 42 -72 33z"/>
<path d="M3920 7063 c0 -5 7 -29 16 -54 17 -45 16 -48 -6 -93 -28 -58 -67 -82
-99 -60 -30 21 -28 79 4 127 36 52 49 48 41 -13 -8 -56 6 -67 23 -19 13 38 14
79 2 98 -8 12 -16 10 -45 -13 -49 -37 -68 -68 -74 -121 -6 -61 16 -95 62 -95
72 0 143 100 137 193 -2 29 -61 77 -61 50z"/>
<path d="M3538 6842 c-88 -87 -94 -188 -13 -208 33 -8 78 21 116 74 51 71 50
172 -1 172 -20 0 -28 -24 -11 -34 32 -20 8 -120 -40 -164 -72 -68 -127 31 -63
115 25 34 28 35 41 18 19 -26 16 -48 -8 -74 -12 -12 -18 -25 -14 -29 4 -4 18
6 31 21 19 23 24 39 24 87 0 32 -3 61 -8 63 -4 3 -28 -16 -54 -41z"/>
<path d="M3240 6688 c0 -7 -21 -30 -47 -53 -42 -38 -46 -45 -51 -97 -4 -48 -1
-59 18 -78 27 -27 68 -22 117 16 46 35 65 66 70 117 4 36 1 48 -22 75 -15 18
-31 32 -36 32 -15 0 -10 -47 6 -60 33 -27 8 -122 -39 -153 -32 -21 -60 -15
-82 18 -13 20 -13 27 -1 57 16 38 42 63 57 53 15 -10 12 -46 -7 -67 -18 -20
-14 -31 10 -23 29 12 40 58 27 119 -11 52 -20 72 -20 44z"/>
<path d="M2908 6468 c-2 -13 0 -38 3 -57 9 -43 3 -60 -27 -67 -25 -6 -31 -18
-15 -29 5 -3 22 5 36 18 22 19 27 32 28 75 2 55 10 64 27 33 33 -62 -19 -171
-81 -171 -33 0 -49 24 -49 74 0 26 5 36 20 41 19 6 38 50 27 61 -3 3 -20 -8
-37 -23 -27 -24 -33 -39 -38 -81 -6 -69 14 -102 63 -102 60 0 144 97 145 167
0 57 -94 113 -102 61z"/>
<path d="M5841 7126 c-9 -10 -8 -15 4 -20 11 -4 15 -20 15 -55 0 -27 5 -53 10
-56 11 -7 14 64 4 114 -7 34 -15 38 -33 17z"/>
<path d="M4733 7043 c-28 -5 -30 -23 -3 -23 17 0 20 -7 20 -50 0 -27 5 -50 10
-50 6 0 10 28 10 65 0 36 -3 64 -7 64 -5 -1 -18 -4 -30 -6z"/>
<path d="M4800 7013 c0 -15 23 -33 42 -33 19 0 23 -10 10 -25 -12 -15 -34 -86
-29 -92 8 -8 27 6 27 20 0 7 9 30 20 52 25 50 25 51 -7 63 -16 5 -36 13 -45
17 -10 4 -18 3 -18 -2z"/>
<path d="M5490 6977 c0 -7 10 -17 23 -22 12 -6 23 -20 25 -32 3 -18 -2 -23
-20 -24 l-23 0 23 -9 c27 -11 39 -37 24 -52 -13 -13 -40 5 -52 37 -9 20 -9 20
-9 -1 -1 -28 32 -56 61 -52 20 3 23 8 21 38 -2 19 -3 48 -3 64 0 16 -7 37 -16
47 -19 22 -54 25 -54 6z"/>
<path d="M6197 6873 c9 -102 22 -111 23 -15 0 65 -3 82 -15 82 -12 0 -13 -12
-8 -67z"/>
<path d="M5147 6795 c-4 -8 -2 -17 3 -20 6 -4 10 -21 10 -40 0 -39 8 -65 21
-65 10 0 12 63 3 109 -7 32 -28 42 -37 16z"/>
<path d="M5849 6748 c-34 -35 -34 -61 -2 -66 15 -2 24 -13 28 -32 9 -39 23
-47 34 -18 5 13 5 24 0 26 -5 2 -9 30 -9 63 0 68 -9 73 -51 27z m31 -28 c0
-22 -4 -28 -15 -24 -15 6 -20 35 -8 47 14 15 23 6 23 -23z"/>
<path d="M6537 6733 c-15 -15 -5 -32 20 -35 14 -2 29 -9 31 -17 3 -9 0 -11 -7
-6 -16 9 -51 -23 -51 -46 0 -9 14 -29 31 -44 42 -34 54 -21 51 52 -2 43 -8 63
-24 80 -22 23 -39 29 -51 16z m61 -111 c3 -17 -2 -22 -17 -22 -14 0 -21 6 -21
18 0 38 33 41 38 4z"/>
<path d="M4726 6665 c-42 -35 -44 -65 -6 -65 13 0 24 -10 30 -25 7 -19 17 -25
40 -25 23 0 33 -6 42 -25 12 -27 23 -31 34 -14 3 6 -6 22 -21 35 -16 13 -25
27 -22 31 4 3 17 -2 28 -13 l22 -19 -6 34 c-4 18 -7 42 -7 52 0 29 -13 23 -46
-21 -16 -22 -32 -40 -36 -40 -4 0 -8 29 -10 64 l-3 64 -39 -33z m34 -26 c0
-10 -6 -19 -13 -19 -22 0 -27 11 -16 32 12 22 29 15 29 -13z"/>
<path d="M5490 6615 c0 -8 7 -15 15 -15 14 0 35 -29 35 -49 0 -6 -7 -11 -16
-11 -12 0 -11 -5 7 -19 20 -16 22 -22 11 -33 -18 -18 -45 1 -53 38 l-7 29 -1
-31 c-1 -29 13 -49 46 -68 6 -3 19 1 27 10 34 34 -6 164 -51 164 -7 0 -13 -7
-13 -15z"/>
<path d="M6192 6556 c-24 -26 -41 -50 -38 -55 3 -5 19 -14 35 -21 17 -7 33
-22 37 -33 6 -20 7 -20 20 -2 8 11 11 28 8 39 -4 11 -9 42 -13 70 l-6 49 -43
-47z m28 -37 c0 -17 -4 -28 -10 -24 -5 3 -10 17 -10 31 0 13 5 24 10 24 6 0
10 -14 10 -31z"/>
<path d="M7480 6656 c0 -44 5 -67 15 -76 13 -11 15 -5 15 48 0 64 -6 92 -21
92 -5 0 -9 -29 -9 -64z"/>
<path d="M7622 6620 c0 -14 2 -19 5 -12 2 6 2 18 0 25 -3 6 -5 1 -5 -13z"/>
<path d="M5141 6447 c-6 -6 -11 -17 -11 -25 0 -12 3 -12 15 -2 8 7 22 10 30 6
19 -7 19 -35 0 -42 -20 -8 -9 -24 16 -24 14 0 19 7 19 28 0 46 -44 84 -69 59z"/>
<path d="M5130 6346 c0 -15 50 -56 69 -56 6 0 11 9 11 20 0 13 -5 17 -14 14
-8 -3 -24 4 -35 15 -25 25 -31 26 -31 7z"/>
<path d="M5825 6410 c-12 -19 7 -32 36 -26 24 4 29 2 29 -13 0 -23 -18 -38
-50 -43 -41 -5 -34 -31 15 -55 34 -17 45 -19 45 -9 0 8 -11 17 -25 20 -27 7
-35 26 -11 26 21 0 46 28 46 51 0 39 -67 78 -85 49z"/>
<path d="M5825 6050 c-4 -6 7 -15 24 -21 40 -14 39 -24 -3 -44 -29 -14 -53
-42 -44 -50 7 -6 88 -45 93 -45 3 0 5 6 5 13 0 8 -18 19 -40 26 -46 14 -53 31
-12 31 33 0 52 16 52 45 0 39 -58 73 -75 45z"/>
<path d="M6491 6397 c-15 -15 -14 -37 2 -37 7 0 22 -6 32 -14 19 -13 18 -15
-18 -32 -20 -10 -37 -23 -37 -30 0 -14 114 -74 141 -74 30 0 35 44 9 80 -12
16 -28 30 -36 30 -19 0 -18 -6 8 -40 32 -44 13 -57 -41 -30 -53 28 -58 37 -26
52 23 10 26 17 23 51 -2 30 -8 42 -24 48 -13 4 -26 3 -33 -4z m49 -22 c0 -8
-4 -15 -9 -15 -5 0 -14 7 -21 15 -10 13 -9 15 9 15 12 0 21 -6 21 -15z"/>
<path d="M6580 6351 c0 -16 19 -23 41 -16 17 6 19 9 8 16 -19 12 -49 11 -49 0z"/>
<path d="M4710 6310 c0 -5 9 -10 20 -10 11 0 20 5 20 10 0 6 -9 10 -20 10 -11
0 -20 -4 -20 -10z"/>
<path d="M4768 6295 c4 -24 22 -36 22 -14 0 5 5 7 10 4 17 -11 11 7 -7 21 -26
19 -31 17 -25 -11z"/>
<path d="M4726 6251 c-19 -35 -13 -54 21 -76 19 -13 27 -14 39 -4 27 22 15 64
-28 97 -15 12 -19 10 -32 -17z m52 -39 c3 -16 -2 -22 -16 -22 -21 0 -36 25
-26 41 10 17 39 5 42 -19z"/>
<path d="M4820 6271 c0 -5 9 -11 20 -14 23 -6 25 -32 5 -67 -8 -14 -14 -33
-15 -42 0 -35 17 -17 43 42 l26 60 -29 15 c-33 17 -50 19 -50 6z"/>
<path d="M7742 6455 c0 -16 2 -22 5 -12 2 9 2 23 0 30 -3 6 -5 -1 -5 -18z"/>
<path d="M5450 6261 c0 -6 14 -18 30 -28 34 -20 40 -43 11 -43 -28 0 -51 -11
-51 -24 0 -6 36 -33 81 -59 76 -46 106 -54 81 -24 -7 8 -9 16 -6 20 8 8 -35
29 -46 22 -5 -3 -17 -1 -27 4 -10 5 -26 12 -36 15 -29 9 -13 31 22 30 29 -2
31 0 31 31 0 37 -17 55 -31 34 -7 -11 -10 -9 -15 9 -6 21 -44 33 -44 13z"/>
<path d="M5570 6186 c0 -26 4 -36 16 -36 11 0 14 8 12 32 -4 46 -28 49 -28 4z"/>
<path d="M6130 6241 c0 -6 7 -14 15 -17 8 -4 12 -10 9 -16 -3 -5 2 -18 12 -30
19 -20 19 -20 26 14 8 38 4 44 -34 53 -18 5 -28 3 -28 -4z"/>
<path d="M6220 6204 c1 -5 6 -19 13 -32 14 -24 11 -92 -4 -92 -5 0 -9 -4 -9
-10 0 -5 7 -10 15 -10 14 0 37 60 31 83 -1 7 -1 9 1 4 8 -12 23 3 23 22 0 10
-8 21 -17 24 -10 2 -26 8 -35 12 -10 4 -18 3 -18 -1z"/>
<path d="M6112 6140 c5 -16 74 -57 83 -49 11 11 -6 37 -28 42 -12 2 -30 8 -41
12 -13 6 -17 4 -14 -5z"/>
<path d="M6161 5851 c-10 -7 -11 -13 -2 -30 16 -29 35 -17 20 12 l-10 22 19
-22 c16 -18 22 -20 31 -10 21 26 -25 48 -58 28z"/>
<path d="M6244 5808 c-13 -21 -61 -48 -84 -48 -34 0 -22 -19 30 -45 53 -27 70
-31 70 -15 0 5 -17 17 -37 26 l-38 16 37 19 c43 22 54 37 40 51 -7 7 -13 5
-18 -4z"/>
<path d="M5140 6075 c0 -8 8 -15 18 -15 21 0 42 -18 42 -36 0 -7 -8 -10 -22
-6 -14 3 -19 2 -14 -6 4 -7 13 -12 21 -12 12 0 25 -21 25 -41 0 -16 -30 -9
-51 12 -29 29 -38 14 -9 -16 13 -14 34 -25 47 -25 21 0 23 4 23 55 0 66 -21
105 -56 105 -15 0 -24 -6 -24 -15z"/>
<path d="M6485 6020 c-10 -16 4 -30 31 -30 37 0 31 -33 -8 -48 l-33 -13 28
-24 c32 -29 47 -32 47 -10 0 8 -7 15 -15 15 -24 0 -17 20 11 30 22 9 25 14 19
38 -4 15 -11 33 -17 39 -12 15 -54 17 -63 3z m55 -10 c0 -5 -4 -10 -10 -10 -5
0 -10 5 -10 10 0 6 5 10 10 10 6 0 10 -4 10 -10z"/>
<path d="M6594 5978 c9 -12 16 -30 16 -40 0 -10 7 -18 15 -18 23 0 18 34 -8
58 -30 28 -42 28 -23 0z"/>
<path d="M6571 5886 c-10 -11 -6 -18 18 -35 30 -22 61 -28 61 -12 0 5 -9 13
-20 16 -12 4 -19 14 -18 23 4 21 -25 27 -41 8z"/>
<path d="M5475 5880 c-3 -5 -1 -10 5 -10 17 0 70 -42 70 -56 0 -14 -43 -44
-65 -44 -30 0 -14 -28 25 -44 53 -21 55 -20 36 9 -16 24 -15 27 5 54 17 23 19
33 10 49 -25 46 -70 68 -86 42z"/>
<path d="M5480 5810 c0 -5 7 -10 15 -10 8 0 15 5 15 10 0 6 -7 10 -15 10 -8 0
-15 -4 -15 -10z"/>
<path d="M6480 5663 c0 -5 14 -16 30 -25 18 -10 30 -25 30 -38 0 -11 4 -20 10
-20 12 0 10 79 -2 86 -4 3 -8 -2 -8 -12 0 -15 -2 -15 -25 0 -27 18 -35 20 -35
9z"/>
<path d="M6585 5621 c3 -11 1 -22 -5 -26 -7 -4 -1 -18 15 -37 35 -41 18 -61
-25 -30 -16 12 -34 22 -39 22 -17 0 -24 22 -10 32 10 6 7 8 -11 6 -40 -5 -29
-29 30 -65 71 -42 100 -44 100 -4 0 15 -9 40 -20 54 -11 14 -20 28 -20 31 0 3
9 6 20 6 24 0 27 15 4 24 -31 12 -46 7 -39 -13z"/>
<path d="M9420 3420 c0 -11 5 -20 10 -20 6 0 10 9 10 20 0 11 -4 20 -10 20 -5
0 -10 -9 -10 -20z"/>
<path d="M9332 3340 c0 -14 2 -19 5 -12 2 6 2 18 0 25 -3 6 -5 1 -5 -13z"/>
<path d="M9350 3341 c0 -12 5 -21 10 -21 6 0 10 6 10 14 0 8 -4 18 -10 21 -5
3 -10 -3 -10 -14z"/>
<path d="M9272 3230 c0 -19 2 -27 5 -17 2 9 2 25 0 35 -3 9 -5 1 -5 -18z"/>
<path d="M9438 3233 c-10 -2 -18 -9 -18 -14 0 -14 16 -11 30 6 7 8 11 14 9 14
-2 -1 -12 -3 -21 -6z"/>
<path d="M9225 3210 c-3 -5 -1 -10 4 -10 6 0 11 5 11 10 0 6 -2 10 -4 10 -3 0
-8 -4 -11 -10z"/>
<path d="M9155 3159 c-4 -6 -5 -12 -2 -15 2 -3 7 2 10 11 7 17 1 20 -8 4z"/>
<path d="M9112 3140 c0 -14 2 -19 5 -12 2 6 2 18 0 25 -3 6 -5 1 -5 -13z"/>
<path d="M9049 2993 c-13 -16 -12 -17 4 -4 9 7 17 15 17 17 0 8 -8 3 -21 -13z"/>
<path d="M7728 2323 c6 -2 18 -2 25 0 6 3 1 5 -13 5 -14 0 -19 -2 -12 -5z"/>
<path d="M7695 2220 c-27 -16 -46 -30 -42 -30 10 0 97 50 97 56 0 6 -2 5 -55
-26z"/>
<path d="M7488 2103 c7 -3 16 -2 19 1 4 3 -2 6 -13 5 -11 0 -14 -3 -6 -6z"/>
<path d="M4430 5195 c-15 -18 -14 -21 90 -265 48 -113 90 -215 94 -227 4 -12
49 -60 101 -108 l95 -87 -2 224 c-1 122 -3 204 -5 181 -4 -45 -12 -49 -67 -43
-40 4 -86 54 -177 190 -52 77 -99 142 -106 144 -6 3 -17 -1 -23 -9z"/>
<path d="M3790 5105 c-290 -31 -400 -45 -430 -56 -14 -5 -40 -11 -58 -12 -38
-4 -109 -68 -147 -132 -31 -52 -80 -165 -61 -142 9 12 26 17 52 17 36 -2 133
2 399 16 55 3 109 5 120 6 11 0 55 4 99 10 43 5 96 10 117 10 21 0 37 3 35 7
-2 3 24 7 58 9 33 1 68 4 76 6 8 2 34 7 58 11 23 4 42 12 42 17 0 6 12 8 27 5
15 -3 40 1 56 9 24 13 29 13 43 -1 8 -8 18 -15 22 -15 11 0 -190 200 -232 231
-21 16 -44 28 -50 28 -6 -1 -108 -12 -226 -24z"/>
<path d="M4441 3294 c0 -11 3 -14 6 -6 3 7 2 16 -1 19 -3 4 -6 -2 -5 -13z"/>
<path d="M4452 3180 c0 -14 2 -19 5 -12 2 6 2 18 0 25 -3 6 -5 1 -5 -13z"/>
<path d="M6487 5297 c-2 -17 -4 -33 -2 -35 1 -1 14 9 29 23 25 23 25 26 9 32
-10 3 -21 8 -24 9 -4 2 -9 -11 -12 -29z"/>
<path d="M6602 5252 c3 -12 2 -22 -4 -24 -5 -2 -6 -11 -2 -21 8 -21 23 -18 38
6 12 19 0 47 -24 55 -9 3 -11 -2 -8 -16z"/>
<path d="M2615 4450 c3 -5 8 -10 11 -10 2 0 4 5 4 10 0 6 -5 10 -11 10 -5 0
-7 -4 -4 -10z"/>
<path d="M2540 4405 c-52 -29 -56 -30 -92 -11 -36 19 -36 6 -1 -16 l27 -16
-27 -13 c-15 -7 -27 -15 -27 -19 0 -3 -22 -17 -50 -29 -27 -12 -50 -28 -50
-33 0 -6 -3 -9 -6 -5 -4 3 -13 0 -20 -8 -8 -7 -19 -15 -26 -18 -7 -2 -11 -7
-8 -10 3 -4 33 10 65 30 33 20 84 49 113 65 l53 29 52 -29 c29 -16 88 -49 132
-72 44 -24 103 -57 130 -75 62 -39 83 -47 90 -35 4 6 -6 15 -22 21 -19 8 -23
13 -13 16 8 3 21 6 28 9 7 2 10 8 7 14 -4 6 -15 4 -30 -6 -21 -14 -29 -14 -55
-3 -16 8 -30 18 -30 22 0 5 -4 5 -10 2 -5 -3 -10 -1 -10 5 0 6 -4 8 -10 5 -5
-3 -10 -1 -10 4 0 6 -7 11 -15 11 -8 0 -15 5 -15 12 0 6 -3 9 -6 5 -4 -3 -13
1 -21 9 -8 8 -19 12 -24 9 -5 -4 -9 -2 -9 3 0 8 -50 36 -59 32 -2 -1 -7 2 -10
7 -3 5 -22 18 -41 30 l-34 22 27 12 c15 7 27 16 27 21 0 4 7 8 15 8 8 0 15 5
15 10 0 13 3 14 -50 -15z"/>
<path d="M2225 4219 c-4 -6 -5 -13 -2 -16 7 -7 27 6 27 18 0 12 -17 12 -25 -2z"/>
<path d="M2785 4140 c4 -6 11 -8 16 -5 14 9 11 15 -7 15 -8 0 -12 -5 -9 -10z"/>
<path d="M2760 4119 c0 -5 5 -7 10 -4 6 3 10 8 10 11 0 2 -4 4 -10 4 -5 0 -10
-5 -10 -11z"/>
<path d="M2700 4089 c0 -5 -4 -7 -10 -4 -5 3 -10 2 -10 -3 0 -5 -18 -17 -40
-27 -22 -10 -40 -21 -40 -25 0 -8 -72 -44 -82 -42 -5 1 -8 -2 -8 -7 0 -5 -14
-14 -30 -21 -27 -11 -36 -10 -65 6 -19 10 -35 21 -35 25 0 7 -39 22 -52 20 -5
-1 -8 4 -8 11 0 6 -3 9 -6 5 -3 -3 -13 1 -22 9 -10 8 -21 14 -25 14 -4 -1 -15
6 -23 15 -9 8 -19 13 -24 10 -5 -3 -10 1 -13 7 -2 7 -8 9 -13 5 -5 -4 -3 -11
4 -15 209 -119 232 -135 217 -152 -24 -26 -18 -33 13 -15 27 16 30 16 80 -14
84 -50 112 -62 112 -51 0 5 -7 10 -15 10 -8 0 -15 5 -15 10 0 6 -25 22 -55 37
-30 15 -54 31 -52 36 1 5 54 40 117 78 127 77 143 89 117 89 -9 0 -17 -5 -17
-11z"/>
<path d="M1770 3935 c-11 -13 -10 -14 4 -9 9 3 16 10 16 15 0 13 -6 11 -20 -6z"/>
<path d="M2347 3876 c-8 -8 -17 -12 -21 -9 -3 4 -6 0 -6 -7 0 -7 -3 -11 -6 -7
-4 3 -13 -1 -21 -9 -8 -8 -19 -12 -24 -9 -5 4 -9 2 -9 -3 0 -5 -13 -15 -30
-22 -16 -7 -30 -17 -30 -22 0 -5 30 7 68 27 78 41 108 63 100 70 -3 3 -12 -1
-21 -9z"/>
<path d="M2630 3831 c0 -6 5 -13 10 -16 6 -3 10 1 10 9 0 9 -4 16 -10 16 -5 0
-10 -4 -10 -9z"/>
<path d="M2700 3642 c0 -12 3 -12 15 -2 8 7 15 13 15 15 0 1 -7 2 -15 2 -8 0
-15 -7 -15 -15z"/>
<path d="M2773 3273 c-7 -3 -13 -12 -12 -21 0 -10 3 -12 5 -5 3 7 12 9 20 6 8
-3 14 0 14 5 0 14 -12 20 -27 15z"/>
<path d="M3048 2997 c-15 -13 -45 -32 -68 -42 -22 -10 -40 -22 -40 -27 0 -12
-1 -12 83 35 37 21 67 43 67 48 0 15 -13 10 -42 -14z"/>
<path d="M3612 2504 c-7 -8 -8 -14 -3 -14 10 0 25 19 20 25 -2 1 -10 -3 -17
-11z"/>
<path d="M4821 2344 c0 -11 3 -14 6 -6 3 7 2 16 -1 19 -3 4 -6 -2 -5 -13z"/>
<path d="M4950 1960 c-8 -5 -12 -11 -9 -14 2 -3 11 -1 19 4 8 5 12 11 9 14 -2
3 -11 1 -19 -4z"/>
<path d="M4907 1935 c-9 -9 -19 -15 -23 -14 -9 3 -44 -24 -44 -34 0 -5 17 1
38 14 47 28 57 37 50 44 -3 3 -13 -1 -21 -10z"/>
<path d="M7023 4079 c-13 -5 -23 -14 -23 -21 0 -10 2 -10 9 0 4 8 11 13 15 12
11 -3 31 7 26 12 -3 3 -15 2 -27 -3z"/>
<path d="M6950 4040 c-8 -5 -12 -11 -9 -14 2 -3 11 -1 19 4 8 5 12 11 9 14 -2
3 -11 1 -19 -4z"/>
<path d="M7490 3880 c-8 -5 -12 -11 -9 -14 2 -3 11 -1 19 4 8 5 12 11 9 14 -2
3 -11 1 -19 -4z"/>
<path d="M7405 3829 c-4 -6 -4 -13 -1 -16 3 -4 6 -1 6 6 0 7 5 9 10 6 6 -3 10
-1 10 4 0 14 -17 14 -25 0z"/>
<path d="M7346 3800 c-11 -3 -15 -9 -10 -13 10 -6 42 9 34 16 -3 3 -14 1 -24
-3z"/>
<path d="M7815 3590 c3 -5 8 -10 11 -10 2 0 4 5 4 10 0 6 -5 10 -11 10 -5 0
-7 -4 -4 -10z"/>
<path d="M7750 3560 c-8 -5 -12 -11 -9 -14 2 -3 11 -1 19 4 8 5 12 11 9 14 -2
3 -11 1 -19 -4z"/>
<path d="M6660 3870 c0 -5 -3 -9 -7 -9 -22 4 -43 -2 -39 -10 4 -5 -7 -12 -24
-16 -28 -6 -47 -21 -38 -31 7 -6 118 56 118 67 0 5 -2 9 -5 9 -3 0 -5 -4 -5
-10z"/>
<path d="M5570 2320 c-8 -5 -12 -11 -9 -14 2 -3 11 -1 19 4 8 5 12 11 9 14 -2
3 -11 1 -19 -4z"/>
<path d="M5527 2296 c-8 -8 -17 -12 -21 -9 -3 4 -6 1 -6 -5 0 -7 3 -12 8 -12
13 1 46 30 40 35 -3 3 -12 -1 -21 -9z"/>
</g>
</svg>
